<svg width="139" height="41" viewBox="0 0 139 41" fill="none" xmlns="http://www.w3.org/2000/svg">
<rect width="15.7787" height="7.88936" transform="matrix(1 0 -0.707107 0.707107 6.20381 22.6454)" fill="#CBD2E4"/>
<rect x="0.641548" y="28.2076" width="15.7787" height="12.4171" fill="#768BC1"/>
<rect width="7.86585" height="12.4171" transform="matrix(0.707107 -0.707107 0 1 16.4205 28.2076)" fill="#21449E"/>
<rect width="15.7787" height="7.88936" transform="matrix(1 0 -0.707107 0.707107 64.3155 10.2284)" fill="#CBD2E4"/>
<rect x="58.7537" y="15.7903" width="15.7787" height="24.8341" fill="#768BC1"/>
<rect width="7.86585" height="24.8341" transform="matrix(0.707107 -0.707107 0 1 74.5326 15.7903)" fill="#21449E"/>
<rect width="15.7787" height="7.88936" transform="matrix(1 0 -0.707107 0.707107 35.2599 15.1952)" fill="#CBD2E4"/>
<rect x="29.698" y="20.7571" width="15.7787" height="19.8673" fill="#768BC1"/>
<rect width="7.86585" height="19.8673" transform="matrix(0.707107 -0.707107 0 1 45.4765 20.7571)" fill="#21449E"/>
<rect width="15.7787" height="7.88936" transform="matrix(1 0 -0.707107 0.707107 93.3716 5.26151)" fill="#CBD2E4"/>
<rect x="87.8098" y="10.8235" width="15.7787" height="29.801" fill="#768BC1"/>
<rect width="7.86585" height="29.801" transform="matrix(0.707107 -0.707107 0 1 103.588 10.8235)" fill="#21449E"/>
<rect x="116.865" y="5.85672" width="15.7787" height="34.7678" fill="#768BC1"/>
<rect width="7.86585" height="34.7678" transform="matrix(0.707107 -0.707107 0 1 132.644 5.85672)" fill="#21449E"/>
<rect width="15.7787" height="7.88936" transform="matrix(1 0 -0.707107 0.707107 122.416 0.294708)" fill="#CBD2E4"/>
</svg>
