<svg width="140" height="26" viewBox="0 0 140 26" fill="none" xmlns="http://www.w3.org/2000/svg">
<path d="M13.0007 13.1105V1.25009C15.5054 1.25009 17.9458 2.04302 19.9721 3.51523L13.0007 13.1105Z" fill="#21449E" stroke="white"/>
<path d="M13.0009 13.1105L19.9723 3.51517C25.2716 7.36537 26.4464 14.7825 22.5962 20.0819C18.746 25.3812 11.3288 26.556 6.02949 22.7058C0.730152 18.8556 -0.444611 11.4384 3.40558 6.13908C5.63716 3.06758 9.2043 1.25003 13.0009 1.25003V13.1105Z" fill="#A0AED2" stroke="white"/>
<path d="M41.4683 13.1105V1.25009C46.6066 1.25009 51.1605 4.55868 52.7483 9.44546L41.4683 13.1105Z" fill="#21449E" stroke="white"/>
<path d="M41.4683 13.1105L52.7482 9.4454C54.7724 15.6751 51.3631 22.3663 45.1334 24.3904C38.9036 26.4146 32.2125 23.0053 30.1883 16.7756C28.1642 10.5458 31.5735 3.85469 37.8032 1.83052C38.9869 1.44592 40.2237 1.25003 41.4683 1.25003V13.1105Z" fill="#A0AED2" stroke="white"/>
<path d="M69.9336 13.1105V1.25009C76.4839 1.25009 81.794 6.56019 81.794 13.1105C81.794 14.3551 81.5981 15.5919 81.2135 16.7756L69.9336 13.1105Z" fill="#21449E" stroke="white"/>
<path d="M69.9336 13.1105L81.2135 16.7756C79.1893 23.0053 72.4982 26.4146 66.2685 24.3904C60.0387 22.3663 56.6294 15.6751 58.6536 9.4454C60.2414 4.55862 64.7953 1.25003 69.9336 1.25003V13.1105Z" fill="#A0AED2" stroke="white"/>
<path d="M98.3961 13.1105V1.25009C104.946 1.25009 110.257 6.56019 110.257 13.1105C110.257 16.9071 108.439 20.4743 105.368 22.7058L98.3961 13.1105Z" fill="#21449E" stroke="white"/>
<path d="M98.3959 13.1105L105.367 22.7058C100.068 26.556 92.6508 25.3812 88.8006 20.0819C84.9504 14.7825 86.1251 7.36537 91.4245 3.51517C93.4508 2.04296 95.8912 1.25003 98.3959 1.25003V13.1105Z" fill="#A0AED2" stroke="white"/>
<path d="M126.86 13.1105V1.25009C133.411 1.25009 138.721 6.56019 138.721 13.1105C138.721 19.6609 133.411 24.971 126.86 24.971V13.1105Z" fill="#21449E" stroke="white"/>
<path d="M126.86 13.1105V24.9709C120.31 24.9709 115 19.6608 115 13.1105C115 6.56013 120.31 1.25003 126.86 1.25003V13.1105Z" fill="#A0AED2" stroke="white"/>
</svg>
