<svg width="150" height="75" viewBox="0 0 150 75" fill="none" xmlns="http://www.w3.org/2000/svg">
<g id="Mollweide">
<g id="Group">
<path id="Vector" d="M66.9311 72.9634L67.164 73.1013L67.3719 73.2214L67.0282 73.1851L66.7769 73.2009L66.4177 73.1122L66.3948 73.1013L66.1482 73.0222L66.4711 73.0326L66.8123 73.0593L66.6869 72.9472L66.5719 72.8501L66.9311 72.9634Z" fill="#BBBBBB"/>
<path id="Vector_2" d="M52.6789 72.8134L52.601 72.8514L51.9231 72.753L51.3498 72.6539L51.2623 72.6372L50.7906 72.5589L50.3735 72.4514L50.8648 72.4968L51.4352 72.5868L52.0227 72.6868L52.6789 72.8134Z" fill="#BBBBBB"/>
<path id="Vector_3" d="M68.1168 72.4003L68.4618 72.5249L68.7493 72.6978L68.9268 72.8186L69.1251 72.9591L69.0405 73.0449L68.931 73.1132L68.7889 73.1757L68.6105 73.2278L68.2822 73.2124L67.9514 73.1236L67.7743 73.0128L67.9343 72.9378L67.903 72.8461L67.8026 72.7253L67.7093 72.6199L67.6522 72.5195L67.5822 72.4003H67.6601L67.8043 72.337L68.1168 72.4003Z" fill="#BBBBBB"/>
<path id="Vector_4" d="M52.2979 70.998L52.6754 71.0488L52.7467 70.9913L52.9437 71.1059L52.9925 71.188L52.6679 71.1626L52.1721 71.0488L51.92 70.9409L52.2979 70.998Z" fill="#BBBBBB"/>
<path id="Vector_5" d="M51.4656 70.9913L52.1022 71.1184L51.9589 71.1059L51.6306 71.0742L51.1251 70.9855L51.066 70.9151L51.4656 70.9913Z" fill="#BBBBBB"/>
<path id="Vector_6" d="M55.3712 70.4806L55.682 70.5268L55.82 70.4877L56.315 70.6764L56.11 70.6506L55.9004 70.6635L55.6333 70.6506L55.4116 70.6702L55.0745 70.6052L54.68 70.4677L54.6816 70.4085L55.0304 70.4548L55.3712 70.4806Z" fill="#BBBBBB"/>
<path id="Vector_7" d="M60.972 70.1505L61.2032 70.3034L61.3512 70.4355L61.4732 70.5601L61.3086 70.6059L61.187 70.6709L60.9216 70.6642L60.8216 70.5338L60.6586 70.5796L60.5107 70.6255L60.2091 70.5276L59.9849 70.3892L60.0078 70.2567L60.0891 70.2171L60.3432 70.2305L60.1574 70.0563L59.9928 69.9284L59.6124 69.6496L59.5186 69.4842L59.6491 69.4292L59.9303 69.5605L60.1482 69.6905L60.4432 69.8471L60.7091 69.9959L60.972 70.1505Z" fill="#BBBBBB"/>
<path id="Vector_8" d="M60.5214 67.6996L60.488 67.7812L60.2514 67.7221L60.0826 67.7587L59.9964 67.8475L59.9105 67.9433L59.898 68.0533L60.0089 68.1991L60.1605 68.3371L60.3951 68.4596L60.3226 68.5462L60.1326 68.575L60.1343 68.6966L60.1222 68.8104L60.1526 68.9666L60.2684 69.1L60.5155 69.2471L60.7614 69.3587L61.038 69.4416L61.3318 69.5521L61.5789 69.6891L61.7772 69.8187L61.9997 69.9541L62.2347 70.0687L62.4485 70.1958L62.8614 70.5062L63.0772 70.6304L63.2597 70.76L63.488 70.8887L63.6926 71.0608L63.7739 71.1933L63.8176 71.3L63.641 71.3433L63.7272 71.455L63.7805 71.5596L63.7034 71.6754L63.5555 71.7237L63.4551 71.79L63.3439 71.8562L63.4364 71.9812L63.1959 71.9933L62.8843 71.9812L62.6714 72.005H62.5601H62.3968L62.6868 72.1225L63.0376 72.175L63.3784 72.2562L63.688 72.3596L63.7101 72.4512L63.388 72.4225L63.3347 72.4962L63.5951 72.6141L63.8493 72.725L64.2376 72.8183L64.5168 72.9212L64.9397 73.0229L65.3243 73.0654L65.7393 73.1391L66.1251 73.2225L66.5539 73.305L66.958 73.3454L67.4218 73.4162L67.7989 73.4912L68.2093 73.575L68.5939 73.6912L68.8659 73.7812L68.791 73.6962L68.8084 73.6237L68.8384 73.5454L68.9505 73.4816L69.0289 73.4112L69.3189 73.4062L69.6714 73.4416L70.008 73.5012L69.9097 73.3912L69.9651 73.315L70.2697 73.31L70.4422 73.2533L70.6101 73.1962L70.8347 73.16L71.0722 73.1129L71.2084 73.0441L71.0234 72.9479L70.873 72.8512L70.7772 72.7471L70.5122 72.7579L70.2659 72.8021H70.1314H69.9905L69.8372 72.6975L69.6326 72.485L69.6372 72.4225L69.7889 72.3541L69.9859 72.285L70.1018 72.1983L70.2234 72.1108L70.2784 71.9933L70.4643 71.9396L70.6593 71.8979L70.7576 71.8741L71.0076 71.8621L71.2289 71.82L71.4039 71.76L71.5739 71.6875L71.7276 71.6146L71.9272 71.5166L72.0401 71.4116L72.1734 71.3187L72.1818 71.1933L71.9605 71.1179L71.9776 70.9846L72.068 70.8825L72.2451 70.8183L72.4326 70.7404L72.6022 70.6371L72.7239 70.5062L72.7851 70.3483L72.9114 70.2554L73.1576 70.2754L73.2764 70.3879L73.5172 70.4012L73.5064 70.2754L73.5914 70.1421L73.8164 70.1754L73.8822 70.3021L74.1251 70.3216L74.3822 70.2621L74.6347 70.2221L74.8664 70.2421L74.9543 70.3816L75.1759 70.2691L75.3847 70.2087L75.6189 70.1625L75.8514 70.1154L76.0689 70.035L76.3064 69.9812L76.4964 69.9071L76.6414 69.785L76.7851 69.8733L77.0118 69.8254L77.133 69.9879L77.2259 70.1087L77.4755 70.0416L77.6005 69.9071L77.8384 69.8121L78.1101 69.8325L78.1559 69.9608L78.3664 69.8325L78.6072 69.7912L78.8609 69.7779L79.0826 69.785L79.3034 69.8254L79.5226 69.8458L79.5739 69.9608L79.6643 70.0616L79.9189 70.0016L80.1697 69.9879H80.198H80.4059L80.6418 69.9812L80.8755 69.9341L81.1193 69.8933L81.3584 69.7983L81.593 69.7371L81.8301 69.7029L82.0514 69.6071L82.2864 69.4141L82.4822 69.2962L82.6768 69.3512L82.6839 69.4762L82.8168 69.5587L83.0601 69.5316L83.1268 69.655L83.2222 69.7437L83.4997 69.6616L83.6859 69.5108L83.9276 69.4487L84.243 69.3308L84.4964 69.2821L84.8105 69.2121L85.0451 69.1354L85.2959 69.0512L85.5347 68.9733L85.713 69.0158L86.0218 68.8883L86.2514 68.7891L86.4614 68.7962L86.723 68.7108L86.8772 68.5816L87.1589 68.4812L87.4134 68.4091L87.6993 68.3512L87.9426 68.3225L88.1322 68.3441L88.3222 68.3804L88.4184 68.4812L88.293 68.6391L88.3801 68.7604L88.4209 68.8604L88.6509 68.9025L88.6997 69.0016L88.7814 69.1L88.9734 69.1212L89.2301 69.0512L89.5876 68.9025L89.7151 68.9804L89.8893 69.0225L90.0522 69.065L90.2397 69.0929H90.4639L90.1918 69.4625L90.0693 69.5521L89.8418 69.7096L89.523 69.7983L89.1914 69.9271L89.0434 70.0616L89.283 70.0554L89.0743 70.1887L88.7976 70.3154L88.5122 70.4537L88.5155 70.5587L88.6951 70.5912L89.0089 70.5325L89.3093 70.4012L89.558 70.2754L89.8222 70.1691L90.0943 70.0687L90.3184 69.9475L90.6668 69.7779L90.8476 69.7437L91.1084 69.7304L91.3797 69.6891L91.6759 69.6346L91.978 69.4971L92.228 69.3654L92.5647 69.2329L92.9097 69.1425L93.1968 69.0721L93.4889 68.9521L93.7068 68.8883L93.9514 68.8316L94.1297 68.8671L94.3864 68.8316L94.6722 68.7891L94.893 68.8104L95.2055 68.7108L95.6759 68.4671L95.6184 68.5675L95.4747 68.7396L95.5622 68.8104L95.7384 68.8387L96.0243 68.7962L96.2134 68.825L96.418 68.8316L96.6176 68.7962L96.7768 68.8175L96.8247 68.8958L97.1114 68.8462H97.1293H97.358L97.6518 68.7962L97.8059 68.8462L98.1626 68.725L98.4839 68.6033L98.8109 68.5029L99.5597 68.2279L99.6305 68.2787L99.6426 68.3804L99.5784 68.5104L99.4876 68.7321L99.7005 68.7396H99.9126L100.239 68.6966L100.58 68.6466L100.954 68.5462L101.311 68.4383L101.601 68.4237L101.922 68.3441L101.974 68.4166L101.879 68.5316L101.825 68.6466L102.107 68.6325L102.086 68.725L102.177 68.8175L102.392 68.8529L102.687 68.825L103.099 68.7108L103.485 68.5966L103.753 68.5675L103.861 68.6175L104.028 68.6533L104.365 68.5966H104.575L104.705 68.6325L104.842 68.6679L105.19 68.6033L105.563 68.5462L105.833 68.5316H105.865H106.099L106.393 68.4958L106.667 68.4671L107.125 68.2862L107.461 68.1337L107.393 68.2354L107.072 68.4021L106.816 68.5533L106.637 68.675L106.684 68.7396L106.996 68.7179L107.316 68.7108L107.574 68.6891H107.647H107.878L108.112 68.6825L108.381 68.6966L108.571 68.725L108.453 68.8387L108.074 68.9733L107.953 69.0791L107.978 69.1633L107.99 69.2541L108.109 69.3166L108.257 69.3725L108.328 69.4279L108.557 69.435L109.025 69.3166L108.949 69.4141L108.804 69.5246L108.758 69.6071L108.92 69.6412L109.046 69.6825L108.743 69.8187L108.735 69.9L108.518 70.0216L108.581 70.075L108.84 70.0687L108.998 70.0887L109.266 70.0821L109.425 70.1087L109.501 70.1554L109.444 70.2358L109.429 70.3021L109.228 70.4012L108.745 70.5325L108.223 70.65L107.598 70.7987L107.105 70.9146L106.518 71.0483L106.083 71.0987L105.546 71.2121L105.048 71.2812L104.486 71.4054L103.906 71.5225L103.39 71.6208L102.805 71.7479L102.291 71.8621L101.7 71.9987L101.22 72.1108L100.797 72.2271L100.333 72.3371L99.9284 72.44L100.021 72.4796L99.4776 72.6029L98.9955 72.6475L98.473 72.7083L98.1464 72.7196L97.2359 72.8779L96.5443 73.0071L95.9522 73.1075L95.3422 73.2066L95.0147 73.2946L94.4547 73.4012L93.9809 73.4962L93.5934 73.58L93.2405 73.6575L92.8847 73.7341L92.5901 73.8096L91.7789 73.925L91.6701 73.975L91.5464 73.9925L91.0622 74.0596L91.8055 74.0016L91.4155 74.0729L91.0955 74.1262L90.5134 74.1891L88.3851 74.3979L86.0618 74.59L83.4497 74.7612L80.3272 74.9054L75.0001 75L68.6964 74.8675L65.763 74.7146L63.2476 74.5366L60.9868 74.3396L58.9047 74.1262L58.9259 74.1279L57.8626 73.9975L58.6397 74.0683L58.5826 74.0604L58.4464 74.0416L58.2826 74.0183L58.1409 73.9983L58.0718 73.9883L58.0918 73.9887L58.1322 73.9925L59.0605 74.0866L58.3922 73.9925L58.3084 73.9796L58.2734 73.9387L58.7872 73.9925L59.0484 74.0196L59.7997 74.0946L60.5251 74.1508L61.3018 74.2191L62.0589 74.2691L61.8022 74.2104L62.5051 74.2525L63.2518 74.3183L62.9555 74.2566L62.733 74.1979L61.9959 74.0946L61.5743 74.0858L60.8926 74.0329L60.1784 73.9433L59.5672 73.8933L58.8689 73.7862L58.2722 73.6866L57.7489 73.5946L57.1159 73.4912L56.5147 73.4212L55.908 73.3304L55.2601 73.2483L55.6501 73.2637L55.7193 73.2225L56.3676 73.31L56.1826 73.2325L55.8901 73.1337L55.5555 73.0441L54.9722 72.9321L54.4405 72.8562L53.8559 72.7746L53.488 72.7579L53.0522 72.7196L52.6447 72.6921L52.0605 72.5862L51.4572 72.4962L50.8801 72.3941L49.3797 72.0579L49.5818 72.0871L50.1201 72.1808L50.2589 72.1516L50.3434 72.1108L51.0039 72.2391L51.1334 72.21L51.0834 72.1458L50.9589 72.0637L50.7551 71.9633L50.8905 71.9337L50.4605 71.82L49.9822 71.7054L49.6401 71.5958L49.6718 71.5412L50.138 71.645L50.1893 71.5837L50.118 71.5041L50.3493 71.4983L50.4851 71.4675L50.483 71.3933L50.4568 71.3246L50.4614 71.2562L50.6609 71.2746L50.8626 71.3L50.9985 71.2562L51.4093 71.3125L51.6376 71.3058L51.7447 71.2621L52.0814 71.2933L52.4405 71.3246L52.6551 71.3125L52.9343 71.3187L53.2193 71.3246L53.4314 71.3125L53.3589 71.2183L53.446 71.1683L53.8593 71.2375L53.9284 71.1808L53.8347 71.0671L54.2114 71.1683L54.5676 71.2812L54.9605 71.3866L54.9043 71.2933L55.4239 71.4116L55.7589 71.4487L56.1843 71.535L56.3847 71.5166L56.4689 71.4608L56.7655 71.4733L57.1093 71.5166L57.483 71.5716L57.2514 71.4366L56.888 71.3312L56.5376 71.2183L56.2434 71.1933L55.8605 71.0733L55.5443 70.9529L54.9326 70.7087L55.1793 70.7537L55.4734 70.7729L55.6809 70.7537L56.0164 70.805L56.4155 70.9016L56.7439 71.0162L57.0372 71.0354L57.1847 70.9912L57.3105 70.9275L57.4659 70.8887L57.8122 70.9654L58.0122 70.94L57.6934 70.6891L58.1289 70.8375L58.4593 70.8954L58.6368 70.8633L59.0314 70.9912L59.301 71.0037L59.5976 71.0416L59.9472 71.1116L59.8759 70.9912L59.7468 70.8758L60.1585 71.0037L60.3605 70.9721L60.6705 71.0416L60.9822 71.1496L61.1739 71.1179L61.2505 71.0483L61.3068 70.9654L61.4651 70.9208L61.673 70.8825L61.8472 70.8375L61.9309 70.7666L61.8959 70.6629L61.7409 70.5196L61.5276 70.3816L61.2851 70.2491L61.0347 70.1154L60.7922 69.9812L60.5797 69.8596L60.3918 69.7233L60.2397 69.5866L60.1784 69.4554L60.0872 69.31L59.9555 69.1704L59.7301 69.0158L59.5401 68.8746L59.4664 68.7108L59.4747 68.6033L59.4772 68.4671L59.5159 68.3512L59.5943 68.2429L59.5251 68.0821L59.556 67.98L59.6151 67.8841L59.8284 67.8625L59.8709 67.7441L59.9768 67.67L60.1405 67.6258L60.2347 67.5291L60.273 67.4091L60.4322 67.3646L60.6618 67.4616L60.6772 67.5887L60.5214 67.6996Z" fill="#BBBBBB"/>
<path id="Vector_9" d="M54.7079 63.5691L55.2795 63.8212L55.77 63.9262L55.7887 64.1349L55.5258 64.1557L55.2662 64.0087L55.2954 64.177L55.1437 64.3062L54.7912 64.2595L54.4808 64.1341L54.1258 64.0741L53.5687 63.8403L53.0862 63.6145L52.2987 63.1395L52.6183 63.2291L53.2608 63.512L53.7745 63.6632L53.782 63.4699L53.6645 63.1795L53.8175 63.0037L54.0708 63.0541L54.3283 63.2516L54.7079 63.5691Z" fill="#BBBBBB"/>
<path id="Vector_10" d="M56.7559 62.3954L57.1163 62.5891L57.1113 62.7396L56.7726 62.8679L56.5434 62.7179L56.4001 62.9108L56.1271 62.7179L56.3421 62.46L56.6701 62.5675L56.7559 62.3954Z" fill="#BBBBBB"/>
<path id="Vector_11" d="M97.309 61.792L96.8032 61.8204L96.9457 61.5875L97.1082 61.4066L97.1865 61.3166L97.3057 61.455L97.5728 61.5099L97.5294 61.5933L97.309 61.792Z" fill="#BBBBBB"/>
<path id="Vector_12" d="M125.96 57.7791L126.131 57.9387L126.388 57.8754L126.756 57.7862L126.933 57.8171L126.366 58.3641L126.071 58.5225L125.621 58.8904L125.643 58.7654L125.044 59.0833L125.001 59.0587L124.808 59.0446L125.035 58.6537L125.318 58.3512L125.544 57.95L125.773 57.7379L125.96 57.7791Z" fill="#BBBBBB"/>
<path id="Vector_13" d="M135.569 57.8376L135.41 58.0284L135.893 57.8413L135.749 58.0359L135.502 58.2301L135.098 58.4426L134.43 58.7801L134.01 58.9634L133.84 59.1826L133.57 59.1884L133.046 59.3592L132.548 59.6551L131.715 60.1105L131.166 60.3105L130.817 60.4376L130.527 60.4284L130.525 60.2809L130.209 60.2497L130.385 60.0855L131.025 59.7517L132.053 59.3055L132.386 59.2201L132.86 59.0467L133.467 58.8084L133.982 58.5709L134.574 58.2288L134.852 58.1121L135.225 57.8546L135.734 57.6409L135.569 57.8376Z" fill="#BBBBBB"/>
<path id="Vector_14" d="M138.712 55.6069L138.432 56.1049L138.794 55.7819L138.817 55.9111L138.474 56.2678L138.589 56.4211L138.789 56.4586L139.2 56.2794L139.321 56.3336L138.747 56.7503L138.312 57.0228L138.052 57.0136L137.786 57.1553L137.575 57.3557L137.417 57.4419L136.973 57.6919L136.399 58.0086L135.895 58.1919L135.99 58.0715L135.929 58.0049L136.608 57.6244L136.805 57.369L136.648 57.1828L136.858 57.014L137.307 56.8511L137.784 56.4903L138.11 56.1857L138.312 55.8694L138.412 55.7865L138.448 55.5907L138.599 55.1703L138.787 54.8328L138.961 54.7957L138.894 55.0603L139.054 55.1836L138.712 55.6069Z" fill="#BBBBBB"/>
<path id="Vector_15" d="M141.408 48.7817L141.186 48.9017L141.047 48.7671L140.891 48.5421L140.782 48.2771L140.708 47.9238L140.741 47.7538L140.91 47.7609L141.045 47.9313L141.129 48.1017L141.181 48.2421L141.334 48.5521L141.408 48.7817Z" fill="#BBBBBB"/>
<path id="Vector_16" d="M147.218 46.3613L147.287 46.5067L147.088 46.7704L146.803 46.8396L146.612 46.7771L146.683 46.5554L146.924 46.3821L147.077 46.4446L147.218 46.3613Z" fill="#BBBBBB"/>
<path id="Vector_17" d="M147.748 46.0887L147.439 46.1954L147.476 46.0071L147.726 45.9033L147.868 45.8754L148.177 45.7175L148.065 45.9646L147.748 46.0887Z" fill="#BBBBBB"/>
<path id="Vector_18" d="M1.95684 45.9375L1.93559 45.9646L1.82309 45.7175L1.89684 45.6942L1.95684 45.9375Z" fill="#BBBBBB"/>
<path id="Vector_19" d="M143.15 45.9196L142.988 45.9863L142.946 45.7646L143.018 45.6288L143.15 45.9196Z" fill="#BBBBBB"/>
<path id="Vector_20" d="M143.167 45.1435L143.071 45.5523L142.987 45.4889L142.891 45.516L142.889 45.3764L143.031 44.9873L143.167 45.1435Z" fill="#BBBBBB"/>
<path id="Vector_21" d="M95.4965 44.4433L95.4949 45.0546L95.5732 45.2921L95.5032 45.5346L95.4128 45.6838L95.3111 45.3867L95.2165 45.5367L95.2469 45.9117L95.1836 46.1263L95.0565 46.2429L94.9732 46.6704L94.7307 47.2579L94.4278 47.95L94.0265 48.8975L93.754 49.5896L93.4707 50.165L93.1294 50.2821L92.7494 50.4913L92.5474 50.365L92.2682 50.1879L92.2049 49.9267L92.2528 49.4863L92.1769 49.0896L92.1957 48.7304L92.3203 48.37L92.5169 48.2833L92.5419 48.1167L92.7874 47.7367L92.8674 47.4167L92.8057 47.1788L92.7707 46.8613L92.7953 46.3967L92.9699 46.1138L93.0615 45.7929L93.2657 45.7742L93.5044 45.6704L93.6653 45.5788L93.8444 45.5721L94.109 45.2833L94.479 44.9708L94.6286 44.7154L94.5953 44.4983L94.7632 44.5592L95.0244 44.2058L95.0615 43.9L95.2186 43.6721L95.3415 43.8908L95.4294 44.1071L95.4965 44.4433Z" fill="#BBBBBB"/>
<path id="Vector_22" d="M133.751 44.5491L133.773 44.9474L134.097 44.7557L134.163 44.9707L134.293 45.1691L134.174 45.3936L134.105 45.8282L134.072 46.0807L134.151 46.1424L134.09 46.5741L133.944 46.8353L133.929 47.1766L134.249 47.4399L134.423 47.6782L134.589 47.8966L134.478 48.0178L134.552 48.3324L134.429 48.8732L134.645 48.7632L134.692 48.9795L134.829 48.9024L134.608 49.4307L134.714 49.7357L134.785 49.9253L134.849 50.3266L134.709 50.7232L134.536 51.0041L134.307 51.3086L134.204 51.7257L133.874 52.1591L133.643 52.3849L133.214 52.8191L133.008 53.0978L132.66 53.4445L132.138 53.8836L131.665 54.1199L131.215 54.492L130.888 54.7282L130.416 55.1399L130.061 55.3774L129.644 55.732L129.291 56.0574L129.167 56.2066L128.803 56.3703L128.384 56.3874L127.867 56.5799L127.525 56.7616L127.112 56.9624L127.019 56.7557L126.879 56.6728L127.167 56.4282L126.887 56.517L126.25 56.8561L126.062 56.7295L125.929 56.6553L125.756 56.622L125.534 56.4857L125.564 56.1961L125.813 55.8378L125.935 55.5982L125.918 55.4061L125.614 55.3486L125.924 55.1182L126.121 54.7641L125.675 55.0941L125.277 55.182L125.682 54.9178L125.957 54.642L126.283 54.4074L126.525 54.052L125.909 54.4616L125.551 54.6253L125.11 55.0053L124.977 54.8091L125.185 54.5549L125.214 54.2074L125.151 54.027L125.302 53.9157L125.029 53.6236L124.774 53.6103L124.574 53.3749L123.868 53.4203L123.263 53.5932L122.726 53.7545L122.389 53.7228L121.825 53.9699L121.425 54.0803L121.18 54.3328L120.907 54.5274L120.584 54.5386L120.322 54.5816L120.054 54.4941L119.751 54.5466L119.482 54.5682L119.087 54.8232L118.993 54.802L118.715 54.937L118.433 55.0886L118.177 55.0695H117.931L117.745 54.7645L117.607 54.6741L117.794 54.3995L118.02 54.3341L118.154 54.2253L118.25 54.052L118.506 53.7174L118.638 53.4307L118.727 52.9416L118.823 52.6641L118.995 52.3861L119.016 52.0686L119.082 51.9245L119.015 51.7299L119.163 51.3457L119.134 50.9557L119.181 50.7457L119.249 50.9586L119.336 50.5011L119.462 50.6441L119.486 50.8353L119.6 50.5824L119.587 50.1932L119.62 50.0374L119.595 49.8891L119.762 49.6016L119.896 49.4795L120.054 49.2303L120.132 48.9391L120.439 48.5799L120.317 48.9599L120.623 48.617L121.012 48.4495L121.289 48.2361L121.665 48.0524L121.862 48.0136L121.948 48.0749L122.335 47.8882L122.599 47.8324L122.701 47.7224L122.824 47.677L123.041 47.6891L123.518 47.5416L123.819 47.3186L124.019 47.0495L124.345 46.7941L124.433 46.5928L124.535 46.3182L124.957 45.8886L124.987 46.3253L125.192 46.2241L125.125 45.9857L125.33 45.7399L125.475 45.8495L125.643 45.4641L125.939 45.2149L126.095 45.0145L126.325 44.9282L126.371 44.7861L126.534 44.8453L126.577 44.7178L126.777 44.6453L126.993 44.5766L127.231 44.8099L127.371 45.1103L127.625 45.1136L127.87 45.1616L127.866 44.8828L128.176 44.4753L128.397 44.342L128.367 44.2153L128.62 43.9241L128.913 43.7449L129.109 43.8049L129.477 43.7091L129.533 43.4486L129.271 43.2807L129.507 43.207L129.751 43.3328L129.919 43.5424L130.234 43.6724L130.364 43.6211L130.579 43.7778L130.856 43.6316L130.999 43.6761L131.12 43.5782L131.244 43.8303L131.062 44.1028L130.85 44.3086L130.705 44.3257L130.694 44.5286L130.5 44.7828L130.279 45.032L130.263 45.1757L130.497 45.4557L130.757 45.6182L130.906 45.7924L131.094 46.0924L131.208 46.092L131.373 46.2211L131.377 46.3774L131.697 46.5482L132.03 46.3757L132.212 46.1045L132.376 45.8803L132.524 45.6028L132.785 45.1995L132.808 44.9541L132.884 44.8061L132.926 44.5153L133.091 44.1324L133.199 44.0291L133.182 43.8591L133.353 43.5882L133.502 43.3082L133.548 43.1628L133.746 42.9716L133.802 43.2211L133.751 43.5416L133.837 43.6032L133.797 43.8174L133.874 44.0761L133.821 44.3641L133.751 44.5491Z" fill="#BBBBBB"/>
<path id="Vector_23" d="M141.852 42.8772L141.921 43.0526L141.634 43.0493L141.559 42.7351L141.773 42.8589L141.852 42.8772Z" fill="#BBBBBB"/>
<path id="Vector_24" d="M124.803 42.753L124.627 42.763L124.145 42.4047L124.547 42.3038L124.737 42.4597L124.853 42.6151L124.803 42.753Z" fill="#BBBBBB"/>
<path id="Vector_25" d="M141.408 42.5654L141.245 42.5766L141.003 42.525L140.936 42.4462L141.009 42.2433L141.263 42.3237L141.373 42.4312L141.408 42.5654Z" fill="#BBBBBB"/>
<path id="Vector_26" d="M141.783 42.4259L141.698 42.5201L141.494 42.0772L141.473 41.7714H141.614L141.675 42.1805L141.783 42.4259Z" fill="#BBBBBB"/>
<path id="Vector_27" d="M126.347 42.7022L125.972 42.8143L125.935 42.753L126.005 42.5793L126.24 42.2676L126.684 42.0643L126.752 41.9439L127.127 41.8284L127.419 41.8109L127.559 41.7472L127.705 41.8105L127.53 41.9493L127.06 42.1734L126.688 42.3201L126.347 42.7022Z" fill="#BBBBBB"/>
<path id="Vector_28" d="M123.823 41.6564L123.952 41.7926L124.214 41.7514L124.283 41.9689L123.788 42.0718L123.491 42.1401L123.269 42.136L123.457 41.8414L123.685 41.8372L123.823 41.6564Z" fill="#BBBBBB"/>
<path id="Vector_29" d="M125.895 41.6555L125.789 41.94L125.144 42.0855L124.604 42.0217L124.632 41.835L124.977 41.7288L125.213 41.8821L125.494 41.8434L125.895 41.6555Z" fill="#BBBBBB"/>
<path id="Vector_30" d="M141.179 41.7796L141.176 41.8825L140.896 41.6655L140.704 41.4817L140.58 41.3113L140.651 41.2588L140.82 41.3817L141.115 41.6175L141.179 41.7796Z" fill="#BBBBBB"/>
<path id="Vector_31" d="M140.308 41.2733L140.22 41.3025L140.06 41.1854L139.925 40.975L139.96 40.8892L140.172 41.1062L140.308 41.2733Z" fill="#BBBBBB"/>
<path id="Vector_32" d="M120.064 40.9813L120.854 41.0317L120.969 40.8204L121.71 41.0671L121.82 41.3992L122.429 41.4929L122.893 41.7971L122.392 41.9921L121.967 41.7859L121.591 41.7996L121.166 41.7617L120.792 41.67L120.339 41.4746L120.041 41.4238L119.86 41.4879L119.131 41.2767L119.084 41.0563L118.708 41.0184L119.044 40.5288L119.545 40.5592L119.86 40.7596L120.028 40.7984L120.064 40.9813Z" fill="#BBBBBB"/>
<path id="Vector_33" d="M130.932 40.6916L130.671 41.0408L130.683 40.655L130.779 40.4708L130.886 40.2975L130.963 40.4475L130.932 40.6916Z" fill="#BBBBBB"/>
<path id="Vector_34" d="M139.666 41.0025L139.542 41.0538L139.394 40.8571L139.26 40.5313L139.221 40.1405L139.285 40.0905L139.311 40.2434L139.421 40.36L139.578 40.685L139.747 40.8592L139.666 41.0025Z" fill="#BBBBBB"/>
<path id="Vector_35" d="M138.148 40.3142L137.925 40.3562L137.84 40.5004L137.596 40.625L137.366 40.745L137.146 40.7446L136.826 40.5954L136.608 40.4525L136.663 40.2937L137.026 40.3687L137.258 40.3287L137.35 40.0825L137.412 40.0696L137.419 40.3421L137.661 40.3029L137.8 40.1275L138.053 39.9442L138.038 39.6417L138.288 39.6321L138.364 39.7162L138.325 40.0012L138.148 40.3142Z" fill="#BBBBBB"/>
<path id="Vector_36" d="M127.961 39.2775L127.794 39.4484L127.513 39.3538L127.446 39.133L127.869 39.1084L127.961 39.2775Z" fill="#BBBBBB"/>
<path id="Vector_37" d="M129.314 39.0899L129.439 39.4824L129.103 39.2707L128.758 39.2282L128.521 39.262L128.234 39.2437L128.35 38.9616L128.865 38.9399L129.314 39.0899Z" fill="#BBBBBB"/>
<path id="Vector_38" d="M138.687 39.8122L138.542 39.9488L138.496 39.6459L138.417 39.4476L138.243 39.2792L138.022 39.0601L137.732 38.9088L137.855 38.7851L138.071 38.9288L138.205 39.0417L138.371 39.1651L138.52 39.3809L138.664 39.5455L138.687 39.8122Z" fill="#BBBBBB"/>
<path id="Vector_39" d="M130.886 38.0922L130.969 38.9235L131.381 39.231L131.761 38.686L132.252 38.376L132.622 38.3756L132.971 38.5543L133.271 38.7385L133.713 38.8364L134.413 39.1906L135.159 39.4843L135.422 39.7477L135.627 40.0056L135.655 40.3081L136.306 40.6252L136.368 40.8972L135.978 40.9527L136.016 41.2939L136.327 41.6297L136.49 42.1731L136.73 42.1556L136.666 42.3822L136.965 42.4689L136.82 42.5656L137.208 42.781L137.127 42.9285L136.845 42.9635L136.776 42.8314L136.435 42.7743L136.036 42.6968L135.787 42.371L135.611 42.0902L135.481 41.6418L134.98 41.4177L134.604 41.5639L134.321 41.7327L134.303 42.1106L133.942 42.2864L133.728 42.201L133.305 42.1797L133.015 41.7593L132.613 41.6564L132.485 41.8027L131.958 41.8185L132.204 41.4014L132.488 41.2589L132.46 40.7018L132.313 40.271L131.552 39.8364L131.213 39.7935L130.628 39.3189L130.486 39.5685L130.322 39.6139L130.243 39.4252L130.257 39.2022L129.955 38.9502L130.413 38.7647L130.71 38.7747L130.681 38.6385L130.071 38.6377L129.918 38.3314L129.549 38.2368L129.379 37.9822L129.943 37.8572L130.158 37.6902L130.824 37.901L130.886 38.0922Z" fill="#BBBBBB"/>
<path id="Vector_40" d="M127.174 36.7701L126.848 37.2801L126.536 37.3789L126.134 37.2784L125.44 37.3043L125.076 37.3784L125.016 37.7676L125.381 38.2243L125.611 37.9914L126.391 37.8168L126.352 38.053L126.172 37.9789L125.985 38.2797L125.612 38.4789L125.974 39.1376L125.887 39.3143L126.216 39.9068L126.18 40.2443L125.943 40.3951L125.798 40.2143L126.038 39.7939L125.612 39.9926L125.521 39.8509L125.592 39.6522L125.313 39.3514L125.373 38.8509L125.087 39.0072L125.084 39.6059L125.036 40.3401L124.765 40.4143L124.601 40.2643L124.763 39.7914L124.734 39.2959L124.559 39.2922L124.45 38.9401L124.637 38.6039L124.709 38.1955L124.928 37.4209L125.014 37.2093L125.362 36.8272L125.69 36.9789L126.217 37.0505L126.695 37.0289L127.098 36.6555L127.174 36.7701Z" fill="#BBBBBB"/>
<path id="Vector_41" d="M128.614 36.9179L128.598 37.3675L128.383 37.3171L128.32 37.6296L128.489 37.9009L128.371 37.9625L128.206 37.6371L128.078 36.98L128.151 36.5692L128.281 36.3821L128.322 36.6625L128.569 36.7079L128.614 36.9179Z" fill="#BBBBBB"/>
<path id="Vector_42" d="M118.949 40.5062L118.488 40.5171L118.175 40.0879L117.672 39.6683L117.513 39.3571L117.218 38.9392L117.026 38.5537L116.724 37.8342L116.36 37.4058L116.233 36.9637L116.071 36.5625L115.685 36.2392L115.449 35.7996L115.12 35.5117L114.65 34.9458L114.593 34.6846L114.862 34.7054L115.514 34.8046L115.917 35.3067L116.259 35.655L116.5 35.8687L116.916 36.4212L117.34 36.4287L117.699 36.7808L117.947 37.2117L118.266 37.4458L118.097 37.8658L118.333 38.0442L118.482 38.0579L118.545 38.4158L118.681 38.7029L118.984 38.7483L119.173 39.0737L119.03 39.7125L118.949 40.5062Z" fill="#BBBBBB"/>
<path id="Vector_43" d="M124.1 36.5604L124.579 37.0363L124.086 37.0971L123.949 37.4475L123.965 37.9134L123.557 38.265L123.528 38.7767L123.322 39.5621L123.273 39.3792L122.785 39.6104L122.641 39.2967L122.346 39.2675L122.147 39.1029L121.642 39.2875L121.504 39.0388L121.23 39.0671L120.89 39.0079L120.852 38.3188L120.648 38.1759L120.454 37.7363L120.396 37.2867L120.438 36.81L120.676 36.4688L120.986 36.6446L121.306 36.5488L121.373 36.1138L121.546 36.0167L122.039 35.9059L122.313 35.4988L122.494 35.1742L122.642 34.9825L122.971 34.7013L123.254 34.3446L123.416 33.9438L123.584 33.9421L123.828 34.2017L123.872 34.4246L124.161 34.5671L124.523 34.7217L124.512 34.9229L124.236 34.9479L124.331 35.1992L124.039 35.3738L123.833 35.8379L124.163 36.3242L124.1 36.5604Z" fill="#BBBBBB"/>
<path id="Vector_44" d="M127.307 33.1805L127.402 33.5209L127.468 33.8084L127.388 34.2776L127.168 33.7547L127.009 34.0151L127.188 34.3922L127.096 34.633L126.574 34.3355L126.411 33.9642L126.505 33.7201L126.207 33.478L126.108 33.6905L125.91 33.6709L125.641 33.9572L125.553 33.8067L125.654 33.3751L125.893 33.2309L126.088 33.038L126.271 33.2701L126.564 33.1297L126.593 32.9013L126.883 32.8876L126.787 32.4922L127.167 32.7347L127.246 32.9926L127.307 33.1805Z" fill="#BBBBBB"/>
<path id="Vector_45" d="M108.719 34.3167L108.367 34.4342L108.138 34.0267L107.997 33.2901L108.093 32.4597L108.411 32.7438L108.643 33.1042L108.898 33.6372L108.882 34.1709L108.719 34.3167Z" fill="#BBBBBB"/>
<path id="Vector_46" d="M49.8548 32.3133L49.5048 32.3696L49.4348 32.3238L49.5682 32.1829L49.5803 31.9813L49.8236 31.915L49.9086 31.9329L49.8548 32.3133Z" fill="#BBBBBB"/>
<path id="Vector_47" d="M126.146 32.2271L126.03 32.395L125.96 32.7183L125.856 32.8696L125.539 32.5162L125.599 32.3792L125.676 32.2362L125.658 31.9192L125.879 31.8892L125.881 32.2333L126.086 31.74L126.146 32.2271Z" fill="#BBBBBB"/>
<path id="Vector_48" d="M123.974 32.7192L123.502 33.2051L123.648 32.8467L123.893 32.5313L124.076 32.1776L124.191 31.6701L124.349 32.0867L124.129 32.3676L123.974 32.7192Z" fill="#BBBBBB"/>
<path id="Vector_49" d="M125.11 31.4038L125.392 31.5621L125.653 31.5609L125.691 31.7742L125.545 31.9913L125.314 32.1442L125.252 31.9067L125.226 31.6467L125.11 31.4038Z" fill="#BBBBBB"/>
<path id="Vector_50" d="M126.566 31.2658L126.809 31.8354L126.462 31.7L126.507 31.8712L126.672 32.1862L126.499 32.3004L126.409 31.9417L126.28 31.915L126.149 31.6062L126.4 31.6467L126.352 31.4537L126.01 31.0646L126.407 31.0758L126.566 31.2658Z" fill="#BBBBBB"/>
<path id="Vector_51" d="M124.822 30.8038L124.818 31.2438L124.583 30.99L124.279 30.6025L124.635 30.6208L124.822 30.8038Z" fill="#BBBBBB"/>
<path id="Vector_52" d="M123.92 28.0517L124.219 28.1954L124.297 28.0642L124.379 28.1925L124.385 28.4017L124.643 28.7629L124.67 29.1838L124.482 29.3513L124.537 29.7596L124.74 30.1642L124.972 30.22L125.136 30.1596L125.723 30.4417L125.755 30.7184L125.92 30.8404L125.934 31.075L125.554 30.825L125.335 30.5584L125.277 30.745L124.939 30.4409L124.586 30.5154L124.354 30.4029L124.319 30.1934L124.412 30.0642L124.258 29.9467L124.255 30.1296L123.974 29.8379L123.851 29.6175L123.692 29.1321L123.906 29.2988L123.699 28.5079L123.675 28.0513L123.92 28.0517Z" fill="#BBBBBB"/>
<path id="Vector_53" d="M48.526 28.1908L48.3989 28.3179L48.0955 28.315L47.8564 28.3325L47.8739 28.1171L47.9451 28.0433L48.2747 28.0463L48.4722 28.0904L48.526 28.1908Z" fill="#BBBBBB"/>
<path id="Vector_54" d="M43.9211 28.3725L43.7807 28.4567L43.5716 28.3754L43.3811 28.1917L43.4553 28.0763L43.6328 28.0417L43.7207 28.0584L43.982 28.1038L44.1703 28.2246L44.2074 28.3629L43.9211 28.3725Z" fill="#BBBBBB"/>
<path id="Vector_55" d="M45.8843 27.3638L46.2147 27.4429L46.2839 27.3571L46.5964 27.3596L46.806 27.4888L46.9143 27.4763L46.9493 27.6546L47.1714 27.6446L47.1277 27.7946L47.3031 27.8125L47.4635 27.9975L47.2735 28.2025L47.1031 28.0925L46.9135 28.1138L46.7856 28.09L46.6947 28.1817L46.5335 28.2129L46.4968 28.0904L46.3485 28.1629L46.1181 28.5079L46.0297 28.4279L46.0385 28.2829L45.7877 28.1975L45.5902 28.2321L45.351 28.1958L45.1427 28.29L44.9593 28.1329L45.0297 27.9708L45.3856 28.0408L45.6814 28.0808L45.8502 27.9692L45.7131 27.7508L45.7585 27.5588L45.5227 27.4804L45.6447 27.3417L45.8843 27.3638Z" fill="#BBBBBB"/>
<path id="Vector_56" d="M119.464 27.9642L119.192 28.2059L118.812 28.0496L118.661 27.6171L118.783 27.3892L119.173 27.2488L119.408 27.2605L119.563 27.4521L119.462 27.6734L119.464 27.9642Z" fill="#BBBBBB"/>
<path id="Vector_57" d="M43.4239 25.9163L43.5301 26.0988L43.9164 26.0425L44.0247 26.1596L44.278 26.4688L44.4676 26.6946L44.6005 26.6875L44.813 26.7896L44.7489 26.9309L45.0384 26.9513L45.2918 27.1563L45.2163 27.2742L44.9347 27.338L44.6589 27.3625L44.3918 27.323L43.8059 27.3721L44.143 27.0921L44.0126 26.9621L43.7634 26.9284L43.6626 26.7838L43.6434 26.4988L43.413 26.5184L43.0784 26.3846L42.988 26.2796L42.4922 26.2021L42.3818 26.105L42.5668 25.98L42.1855 25.9546L41.8239 26.2138L41.6572 26.2209L41.5647 26.3425L41.3518 26.3975L41.1951 26.35L41.4505 26.1959L41.5905 26.0155L41.803 25.905L42.0347 25.808L42.3493 25.76L42.4613 25.705L42.7926 25.7409L43.1014 25.7467L43.4239 25.9163Z" fill="#BBBBBB"/>
<path id="Vector_58" d="M44.4158 25.4213L44.3121 25.4459L44.2971 25.16L44.1938 25.0163L44.3767 24.7021L44.4883 24.7221L44.4996 25.1334L44.4158 25.4213Z" fill="#BBBBBB"/>
<path id="Vector_59" d="M123.015 25.9033L123.02 26.3125L122.632 25.8913L122.423 25.5225L122.43 25.035L122.563 24.66L122.814 24.8071L122.89 25.1063L123.015 25.9033Z" fill="#BBBBBB"/>
<path id="Vector_60" d="M44.7404 24.0258L44.29 24.1046L44.3246 23.9225L44.5204 23.8829L44.7717 23.8979L44.7404 24.0258Z" fill="#BBBBBB"/>
<path id="Vector_61" d="M45.061 24.0208L44.8797 24.3716L44.8285 24.3083L44.9189 24.0504L44.8102 23.8558L44.8285 23.7991L45.061 24.0208Z" fill="#BBBBBB"/>
<path id="Vector_62" d="M124.888 20.3488L125.061 20.513L125.069 20.803L124.802 20.6493L124.693 20.7605L124.8 21.0418L124.457 20.9051L124.293 20.6768L124.285 20.3913L124.538 20.4463L124.536 20.2455L124.888 20.3488Z" fill="#BBBBBB"/>
<path id="Vector_63" d="M87.6644 19.6226L87.4581 19.8251L87.5031 19.9142L87.5223 19.953L87.1819 20.1467L86.9894 20.0846L86.8673 19.8934L87.0386 19.8759L87.0636 19.873L87.0944 19.758L87.3602 19.7646L87.6644 19.6226Z" fill="#BBBBBB"/>
<path id="Vector_64" d="M83.6785 19.6071L83.9023 19.7671L84.184 19.74L84.4619 19.7737L84.466 19.8566L84.6573 19.7996L84.6331 19.94L84.109 19.9804L84.101 19.9016L83.6394 19.8091L83.6785 19.6071Z" fill="#BBBBBB"/>
<path id="Vector_65" d="M80.5669 18.4147L80.474 18.7847L80.5424 18.9305L80.4894 19.1734L80.1953 18.9951L80.0069 18.9443L79.4824 18.7051L79.5132 18.4638L79.9369 18.5068L80.2986 18.4555L80.5669 18.4147Z" fill="#BBBBBB"/>
<path id="Vector_66" d="M78.2156 17.0282L78.4481 17.3565L78.4398 17.9715L78.2765 17.9424L78.1406 18.0978L77.9981 17.974L77.9515 17.4128L77.856 17.1482L78.0498 17.1711L78.2156 17.0282Z" fill="#BBBBBB"/>
<path id="Vector_67" d="M126.029 18.9266L126.225 19.3037L126.493 19.5412L126.584 19.8766L126.297 20.1008L125.671 20.1304L125.567 20.6762L125.177 20.4921L124.885 20.1346L124.324 20.24L124.057 20.4654L123.629 20.4746L124.265 20.8275L124.592 21.6475L124.485 21.8508L124.176 21.6629L123.97 21.2275L123.634 21.0875L123.248 20.7575L123.493 20.6096L123.465 20.3083L123.649 20.0616L123.665 19.7362L124.28 19.5941L124.752 19.6916L124.424 18.85L124.861 19.0754L124.976 18.6041L125.014 18.4216L124.703 17.8496L124.133 17.3275L123.988 17.035L124.272 16.95L125.111 17.5921L125.469 17.97L125.582 18.4412L126.029 18.9266Z" fill="#BBBBBB"/>
<path id="Vector_68" d="M78.3074 16.5947L78.2174 16.9497L78.0528 16.856L77.9528 16.5464L78.0111 16.3764L78.2207 16.2018L78.3074 16.5947Z" fill="#BBBBBB"/>
<path id="Vector_69" d="M123.757 15.6721L124.106 15.7687L124.125 15.5762L124.784 16.0866L124.415 16.2116L124.606 16.6666L123.727 16.3529L124.069 16.8554L123.689 16.8621L123.167 16.4054L122.96 16.0541L123.297 16.0287L122.691 15.4012L122.382 15.0504L123.323 15.5196L123.757 15.6721Z" fill="#BBBBBB"/>
<path id="Vector_70" d="M53.9922 14.6029L54.1993 14.6629L54.5122 14.6508L54.2522 14.8341L54.1143 14.8633L53.7959 14.6729L53.7955 14.5237L53.9963 14.3862L53.9922 14.6029Z" fill="#BBBBBB"/>
<path id="Vector_71" d="M55.2288 13.4725L55.0684 13.4804L54.7351 13.3429L54.5638 13.1371L54.6959 13.1004L55.0467 13.2096L55.2655 13.3921L55.2288 13.4725Z" fill="#BBBBBB"/>
<path id="Vector_72" d="M35.1925 13.7341L34.9617 13.795L34.6604 13.5954L34.7454 13.4395L34.6413 13.2866L34.7329 13.162L34.5021 13.0837L34.6721 12.8475L34.8246 12.747L35.0363 12.8412L35.1479 12.907L35.3879 12.9533L35.315 13.1033L35.2267 13.3104L35.3354 13.4912L35.1925 13.7341Z" fill="#BBBBBB"/>
<path id="Vector_73" d="M57.4109 12.7833L56.9959 13.1633L57.2817 13.0162L57.4442 13.1096L57.253 13.2616L57.4734 13.3816L57.6746 13.2746L57.9242 13.4096L57.6667 13.7308L57.9288 13.6558L57.8571 13.8896L57.8288 14.1641L57.51 14.5562L57.3538 14.5725L57.1759 14.4883L57.4188 14.125L57.3555 14.0687L56.7905 14.4537L56.6021 14.4379L56.935 14.2291L56.675 14.1212L56.3117 14.1479L55.6859 14.1346L55.705 14.0037L55.9892 13.8475L55.913 13.7283L56.3259 13.4633L57.0342 12.77L57.3659 12.5241L57.7184 12.3754L57.8513 12.3946L57.7267 12.5112L57.4109 12.7833Z" fill="#BBBBBB"/>
<path id="Vector_74" d="M35.3654 11.3508L35.7004 11.3171L34.9362 11.7975L34.735 12.1404L34.6137 12.1396L34.6945 11.9442L34.852 11.7483L34.8841 11.6167L35.0929 11.4304L35.3041 11.2962L35.3654 11.3508Z" fill="#BBBBBB"/>
<path id="Vector_75" d="M119.976 12.7572L121.351 13.5293L120.684 13.3843L121.315 14.0201L122.205 14.4751L122.579 14.7872L121.999 14.5181L122.202 14.8639L121.687 14.4889L121.185 14.0564L120.537 13.5806L120.174 13.2497L119.393 12.6689L118.613 12.2456L117.787 11.6631L117.77 11.4685L117.352 11.2731L117.392 11.2139L117.9 11.4922L118.621 11.9014L119.229 12.3222L119.976 12.7572Z" fill="#BBBBBB"/>
<path id="Vector_76" d="M72.9185 12.1063L72.3531 12.3596L71.9222 12.2951L72.2143 11.8484L72.0993 11.418L72.5368 11.0884L72.7768 10.8934L73.0243 10.8763L73.3227 11.1346L73.1443 11.4234L73.1743 11.7259L72.9185 12.1063Z" fill="#BBBBBB"/>
<path id="Vector_77" d="M78.6976 10.6947L78.5689 11.0322L78.231 10.7963L78.1685 10.6238L78.5755 10.4872L78.6976 10.6947Z" fill="#BBBBBB"/>
<path id="Vector_78" d="M31.5223 10.074L30.9536 10.2302L31.0007 10.1244L31.3102 9.93271L31.8369 9.78813L32.1023 9.72604L32.2369 9.75396L32.1223 9.87979L31.5223 10.074Z" fill="#BBBBBB"/>
<path id="Vector_79" d="M74.169 9.45676L73.8515 9.89509L74.1407 9.83926L74.449 9.84134L74.3669 10.1747L74.097 10.5438L74.3957 10.5701L74.6703 11.1055L74.8728 11.173L75.0561 11.653L75.1432 11.8209L75.5124 11.9018L75.4799 12.1751L75.3245 12.3005L75.4511 12.5234L75.1724 12.7493L74.7536 12.7451L74.2182 12.8643L74.074 12.7788L73.8599 12.9826L73.5703 12.933L73.3407 13.0993L73.1774 13.0122L73.6595 12.5572L73.9411 12.4643L73.4578 12.3926L73.3795 12.2218L73.7065 12.0888L73.5499 11.8593L73.6211 11.5809L74.0678 11.6197L74.1199 11.3743L73.9257 11.1097L73.5703 11.0359L73.5061 10.9226L73.6232 10.7368L73.5336 10.6222L73.3649 10.8188L73.3732 10.4193L73.2428 10.2093L73.3757 9.78717L73.6144 9.45884L73.8336 9.49051L74.169 9.45676Z" fill="#BBBBBB"/>
<path id="Vector_80" d="M30.2769 8.94631L29.9769 9.00839L29.961 8.93423L30.0344 8.82589L30.4485 8.75839L30.5827 8.79381L30.2769 8.94631Z" fill="#BBBBBB"/>
<path id="Vector_81" d="M54.539 8.06338L54.2107 8.26796L54.1319 8.23463L54.1936 8.1188L54.2361 8.09171L54.4669 7.97546L54.5623 7.98421L54.539 8.06338Z" fill="#BBBBBB"/>
<path id="Vector_82" d="M54.1076 7.85001L53.5572 8.06334L53.3855 8.05459L53.4534 7.9496L53.8564 7.77209L54.2009 7.77543L54.1076 7.85001Z" fill="#BBBBBB"/>
<path id="Vector_83" d="M32.2197 7.44052L32.1889 7.51302L32.4439 7.47385L32.3935 7.57427L32.5172 7.6251L32.3935 7.66677L32.0022 7.74802L32.0147 7.66469L32.0926 7.59552L31.8151 7.6176L31.8401 7.58385L32.2197 7.44052Z" fill="#BBBBBB"/>
<path id="Vector_84" d="M54.7084 6.73699L54.5334 6.90032L54.733 6.84282L54.7438 6.94032L54.843 7.06866L54.9755 7.18616L54.7759 7.36532L54.9938 7.33616L55.0201 7.46199L54.6551 7.58157L54.3759 7.48991L54.4476 7.31907L53.9492 7.52116L53.3447 7.71907L53.5392 7.49574L53.1534 7.53241L53.613 7.34407L54.0342 7.04782L54.5776 6.70657L54.7084 6.73699Z" fill="#BBBBBB"/>
<path id="Vector_85" d="M71.6121 6.44261L71.5009 6.68095L71.7146 6.93428L71.335 7.22053L70.5567 7.4797L70.3225 7.5497L70.0088 7.49303L69.3525 7.37303L69.6517 7.20636L69.1846 7.02261L69.6396 6.95011L69.6675 6.84053L69.1971 6.75428L69.4496 6.51345L69.825 6.4597L70.1063 6.70928L70.5296 6.50845L70.7946 6.61261L71.2313 6.41678L71.6121 6.44261Z" fill="#BBBBBB"/>
<path id="Vector_86" d="M57.6032 6.19005L57.3228 6.20838L57.4974 6.0313L57.8616 5.83005L58.132 5.78088L58.1749 5.87963L57.9778 6.03338L57.8882 6.08338L57.6032 6.19005Z" fill="#BBBBBB"/>
<path id="Vector_87" d="M34.2662 6.39574L34.1629 6.48657L34.8754 6.22157L35.3437 6.27574L34.8387 6.61866L34.1633 6.77991L33.6671 6.81824L32.6816 7.18366L32.3771 7.26199L32.1762 7.25074L32.3379 7.11991L32.3104 7.01032L32.7025 6.84824L32.6283 6.78782L32.2212 6.83574L32.4587 6.70616L32.9054 6.56907L32.3696 6.65616L31.9775 6.83074L31.3958 6.98907L35.7646 5.54074L35.4404 5.81157L34.9475 6.16949L34.2662 6.39574Z" fill="#BBBBBB"/>
<path id="Vector_88" d="M54.2396 5.49005L53.8891 5.6138L53.7825 5.50672L53.5366 5.54547L53.5266 5.38755L53.9146 5.27922L54.3421 5.12839L54.3846 5.22714L54.3987 5.28964L54.3441 5.35589L54.2396 5.49005Z" fill="#BBBBBB"/>
<path id="Vector_89" d="M112.039 4.89217L111.874 4.90967L111.457 4.80092L111.209 4.65967L112.039 4.89217Z" fill="#BBBBBB"/>
<path id="Vector_90" d="M38.303 4.87128L37.9614 4.89211L38.7918 4.65961L38.8689 4.64545L39.0368 4.64628L38.9818 4.74336L38.8009 4.7892L38.303 4.87128Z" fill="#BBBBBB"/>
<path id="Vector_91" d="M55.574 5.35342L54.9811 5.71383L55.7224 5.43717L55.619 5.66425L55.1419 5.92883L54.9965 6.17217L55.6207 5.91133L56.2486 5.60425L56.8657 5.21925L57.1249 5.24633L57.3599 5.29758L57.3865 5.47092L57.1424 5.64633L56.7036 5.83592L56.5903 6.028L56.3186 6.20383L55.5161 6.45883L55.1119 6.51592L55.0244 6.4055L54.6957 6.58967L54.0357 6.90217L53.7432 7.0655L53.1169 7.3205L52.729 7.3455L52.3161 7.50592L51.9694 7.75467L51.6107 7.80258L50.8853 8.1155L50.0344 8.5555L49.539 8.86675L48.9586 9.3305L49.284 9.39759L48.9732 9.77592L48.7603 10.0855L49.2457 10.0047L49.5849 10.1818L49.7086 10.338L49.7165 10.5334L49.9674 10.6472L50.1069 10.8222L50.5678 10.8463L50.849 10.8868L50.4715 11.2493L50.1903 11.6734L50.0065 12.1501L50.1361 12.5584L50.4861 12.418L51.0053 11.9776L51.4061 11.3084L51.3886 11.0872L52.0319 10.8918L52.619 10.6001L53.0349 10.3126L53.2599 10.038L53.3907 9.69258L53.3482 9.38842L54.0886 8.96883L54.339 8.61092L54.9069 8.00092L55.1836 7.91217L55.5103 8.01717L55.7349 8.05508L56.0549 7.953L56.1586 8.08425L56.2519 8.31008L56.1828 8.46175L56.6253 8.49133L56.3086 8.823L55.9465 9.32717L56.1436 9.39008L56.1428 9.62759L56.7311 9.40342L57.3644 8.96175L57.6999 8.77759L57.6128 9.13258L57.564 9.64592L57.5099 10.1343L57.2074 10.393L57.4282 10.6255L57.529 10.8634L57.9269 10.9713L58.0315 11.1047L57.9286 11.4605L58.1286 11.5163L58.1549 11.6759L57.9007 12.1547L57.5857 12.3159L57.2774 12.4668L56.6769 12.6205L56.0769 12.9759L55.5024 13.0463L54.8828 12.9551L54.4119 12.9522L54.0665 12.9822L53.6028 13.2951L53.0732 13.4888L52.2411 14.0718L51.6115 14.4818L51.9353 14.4088L52.8165 13.8268L53.7178 13.4605L54.2228 13.4168L54.3774 13.6322L53.8994 13.9276L53.7282 14.4055L53.6494 14.7422L53.9607 14.9659L54.5444 14.9009L55.1374 14.3988L54.9919 14.7222L55.1236 14.8847L54.5632 15.1793L53.6832 15.4476L53.2544 15.6305L52.7074 15.958L52.4661 15.9243L52.654 15.5401L53.4361 15.1668L52.8924 15.1818L52.4903 15.2363L52.4669 15.3843L51.9878 15.6034L51.554 15.7601L51.1215 15.8947L50.7628 16.1926L50.679 16.268L50.5457 16.5105L50.5319 16.7543L50.6699 16.7655L50.7207 16.598L50.7715 16.6997L50.6761 16.8313L50.4028 16.9059L50.2403 16.8968L49.9403 16.9776L49.7765 17.0005L49.5619 17.023L49.1999 17.1572L49.7594 17.0697L49.8174 17.1576L49.2544 17.2963L49.0303 17.2972L49.0711 17.2405L48.8961 17.3688L48.989 17.3901L48.7399 17.7238L48.2994 18.0826L48.3336 17.963L48.2678 17.9388L48.2111 17.8222L48.1565 18.0734L48.1986 18.1568L48.1199 18.3334L47.9153 18.5155L47.5294 18.8913L47.5053 18.8726L47.7732 18.5526L47.6786 18.3734L47.8353 17.9847L47.6628 18.1863L47.589 18.4838L47.3978 18.4138L47.5603 18.5613L47.3569 19.0101L47.4453 19.0426L47.4053 19.2059L47.2374 19.6801L46.8444 20.0338L46.399 20.1751L46.0307 20.4559L45.8319 20.4868L45.5657 20.6626L45.4419 20.8234L44.8953 21.1359L44.5844 21.3655L44.2853 21.6522L44.084 21.9963L44.014 22.3334L43.9782 22.7509L44.0174 23.0968L43.9415 23.3084L43.9219 23.878L43.7961 24.2101L43.7153 24.4022L43.5182 24.7043L43.3811 24.7668L43.2078 24.7068L43.2178 24.4897L43.1074 24.3759L43.0482 23.9522L43.0036 23.5759L43.0165 23.3838L43.219 23.0588L43.2157 22.7897L43.0811 22.3818L42.9632 22.3072L42.4869 22.5284L42.4286 22.5038L42.339 22.2768L42.1515 22.1568L41.6953 22.218L41.3811 22.1638L41.0765 22.1976L40.8849 22.2655L40.8969 22.4026L40.8053 22.6001L40.8453 22.6968L40.7453 22.7605L40.6336 22.6888L40.4503 22.7813L40.179 22.7659L40.0061 22.5084L39.6457 22.5693L39.419 22.4563L39.1661 22.4905L38.7924 22.6043L38.2803 22.9663L37.804 23.1776L37.4903 23.4113L37.3057 23.6322L37.1578 23.9718L37.079 24.2084L37.0849 24.3759V24.3772L37.0832 24.378L36.7611 24.8101L36.5553 25.1672L36.2824 25.8326L36.1586 26.0763L36.134 26.3484L36.1761 26.5926L36.1307 26.9809L36.2811 27.3543L36.2899 27.6413L36.3761 27.8888L36.7669 28.0222L36.8765 28.2334L37.2682 28.0922L37.5894 28.0413L37.9157 27.9505L38.1924 27.8647L38.504 27.6593L38.6811 27.3663L38.8361 26.9443L38.9482 26.798L39.2582 26.6672L39.7144 26.5509L40.0624 26.5684L40.3165 26.5259L40.3807 26.6326L40.2978 26.8734L39.999 27.1718L39.8199 27.4772L39.8703 27.5647L39.7528 27.7822L39.5511 28.1747L39.4815 28.0451L39.3949 28.0538L39.3778 28.128L39.4536 28.1301L39.4128 28.2672L39.2936 28.4855L39.3099 28.563L39.2244 28.7438L39.2386 28.7926L39.1332 29.0476L39.0228 29.1818L38.9461 29.198L38.8261 29.3738L38.939 29.4655L38.9907 29.3893L39.0961 29.4543L39.134 29.4738L39.2424 29.3847L39.3603 29.3776L39.389 29.4193L39.4578 29.3938L39.6369 29.4397L39.8278 29.4263L39.9707 29.3705L40.0303 29.3138L40.1544 29.3397L40.2444 29.3743L40.3536 29.3626L40.4432 29.3184L40.6144 29.3888L40.6769 29.4001L40.7815 29.4947L40.8761 29.6084L41.009 29.6859L41.089 29.8255L41.0444 29.8738L41.0024 29.9872L41.009 30.173L40.8836 30.3463L40.8032 30.5505L40.7515 30.7751V30.9063L40.7244 31.1355L40.6536 31.1855L40.5811 31.4034L40.589 31.538L40.4857 31.6684L40.4849 31.8063L40.5357 31.8901L40.6028 32.1672L40.7349 32.3734L40.9019 32.5913L41.0286 32.7747L41.0074 32.883L41.1699 32.9059L41.214 32.8647L41.3136 32.9905L41.5211 32.953L41.7111 32.8243L41.974 32.7209L42.1328 32.568L42.3574 32.598L42.3361 32.6484L42.5644 32.6663L42.7386 32.7543L42.8569 32.908L42.9978 33.0497L43.2094 33.0659L43.5578 32.7084L43.7332 32.6543L43.7565 32.4851L43.8836 32.0534L44.1494 31.8168L44.4103 31.8068L44.4569 31.7009L44.7732 31.743L45.1303 31.4855L45.3057 31.3713L45.5378 31.1263L45.679 31.1572L45.769 31.2913L45.6661 31.463L45.6394 31.5834L45.3903 31.643L45.4957 31.8747L45.4594 32.1418L45.2444 32.438L45.3582 32.8443L45.5394 32.8109L45.6707 32.4413L45.5628 32.2613L45.5865 31.8747L46.1249 31.6676L46.0978 31.4268L46.2628 31.2663L46.3653 31.6243L46.6524 31.633L46.8865 31.9172L46.8836 32.0863L47.2536 32.0909L47.6994 32.038L47.9115 32.2672L48.2211 32.3305L48.4686 32.1705L48.4865 32.0422L49.0003 32.0109L49.4949 32.0038L49.1294 32.1551L49.2474 32.3963L49.5732 32.4347L49.8636 32.6859L49.8957 33.0959L50.1124 33.0843L50.2649 33.2051L50.5224 33.3934L50.7561 33.7268L50.7511 33.9909L50.9065 34.003L51.1144 34.2534L51.269 34.4318L51.7611 34.5343L51.8103 34.4422L52.1482 34.4051L52.5878 34.5426L52.7265 34.5997L53.0265 34.7205L53.4499 35.1538L53.5111 35.3643L53.6536 35.3405L53.7478 35.6238L53.9619 36.523L54.1836 36.6072L54.1911 36.9626L53.8757 37.3855L54.0053 37.5401L54.7419 37.6209L54.7599 38.1363L55.074 37.7993L55.599 37.9838L56.2936 38.298L56.5007 38.5988L56.4369 38.883L56.9186 38.7251L57.7336 38.9968L58.3553 38.9768L58.9794 39.4022L59.5244 39.9772L59.8486 40.1251L60.2049 40.1455L60.3603 40.3076L60.5224 40.9605L60.6028 41.2709L60.4749 42.1172L60.2815 42.4509L59.7411 43.1622L59.5174 43.7384L59.2465 44.1801L59.1444 44.1901L59.0603 44.5638L59.1736 45.5151L59.1382 46.2947L59.1311 46.6276L59.0257 46.8263L59.0332 47.4993L58.7107 48.1538L58.7144 48.6705L58.4244 48.8872L58.3765 49.1859L57.9457 49.1847L57.3544 49.3759L57.114 49.5972L56.6978 49.7422L56.3078 50.1372L56.0728 50.6276L56.0911 50.9959L56.2128 51.2676L56.2486 51.7634L56.2153 52.0022L56.0094 52.2709L55.7982 53.1272L55.5678 53.5113L55.3736 53.7368L55.3336 54.1951L55.1682 54.4688L55.0999 54.7701L54.7669 55.0355L54.464 54.9401L54.2811 54.9909L53.8724 54.7859L53.6265 54.8013L53.3132 54.5363L53.3715 54.7868L53.9774 55.1951L54.0407 55.5222L54.3407 55.7288L54.404 55.9597L54.2794 56.5634L53.8457 56.8147L53.1694 56.9118L52.7582 56.8651L52.9499 57.1434L53.0274 57.4918L53.1953 57.7255L53.0578 57.8884L52.7286 57.9522L52.3149 57.7838L52.2357 57.9047L52.5024 58.3626L52.8028 58.5005L52.9228 58.3559L53.139 58.5938L52.8911 58.7359L52.7582 59.0197L52.944 59.4763L52.9928 59.7184L52.6765 59.7197L52.5411 59.9501L52.6361 60.2863L53.1486 60.613L53.5136 60.7026L53.6336 61.1001L53.4028 61.3484L53.5186 61.8618L53.3419 62.0334L53.349 62.2364L53.7557 62.6843L54.1324 62.9322L53.9882 62.9105L53.7136 62.9076L53.6411 63.0126L53.4786 63.1663L53.7274 63.5618L53.6078 63.5718L53.1632 63.4343L52.5899 63.1389L52.0228 62.8951L51.7199 62.6234L51.619 62.3709L51.2503 62.083L50.6815 61.3384L50.5303 60.9138L50.6507 60.5705L50.0678 60.4409L50.1311 60.0455L49.7903 59.2959L50.2607 59.4555L49.904 58.5113L49.6053 58.3897L49.8174 58.9609L49.5649 58.8968L49.3065 58.2413L48.9728 57.3847L48.9749 57.0663L48.6482 56.6101L48.3665 56.0801L48.5119 56.0647L48.3924 55.3001L48.3261 54.5363L48.2015 53.8205L47.8436 53.0963L47.8136 52.6959L47.5611 52.0934L47.5911 51.4955L47.3715 50.543L47.2115 49.5138L47.0561 48.3988L46.8407 47.578L46.6086 46.8697L46.1457 46.5805L46.0699 46.373L45.1694 45.8655L44.339 45.3118L43.9694 44.9988L43.7299 44.5793L43.7736 44.433L43.3244 43.7651L42.7915 42.8234L42.2861 41.8055L42.0936 41.5722L41.9286 41.1943L41.5782 40.8601L41.2661 40.6526L41.3836 40.423L41.1507 39.9338L41.2603 39.5743L41.5774 39.2501L41.7849 38.8655L41.6878 38.6418L41.5357 38.8801L41.2794 38.6551L41.3603 38.5101L41.2811 38.0434L41.4265 37.9663L41.5011 37.6459L41.6586 37.3151L41.6307 37.1055L41.8603 36.9947L42.1499 36.7901L42.0961 36.6309L42.2524 36.5922L42.2403 36.3347L42.3432 36.1484L42.5507 36.1138L42.7382 35.7913L42.9082 35.5218L42.7611 35.3993L42.8544 35.1018L42.7894 34.6318L42.8874 34.4976L42.854 34.0638L42.7086 33.7905L42.5836 33.643L42.5207 33.3663L42.6365 33.2297L42.5353 33.1943L42.4753 33.0255L42.2844 32.883L42.0999 32.9159L41.9969 33.0938L41.8165 33.2222L41.724 33.2397L41.6728 33.3468L41.8436 33.6251L41.7244 33.6901L41.6582 33.7663L41.4628 33.7918L41.4194 33.4859L41.3569 33.573L41.2236 33.543L41.1603 33.3372L40.994 33.3034L40.8928 33.2434L40.7149 33.2438L40.6907 33.3551L40.6511 33.2776L40.4386 33.1638L40.3665 33.0563L40.424 32.9676L40.4215 32.8543L40.3215 32.7322L40.1711 32.6318L40.0369 32.5663L40.029 32.4168L39.9324 32.3251L39.9399 32.4738L39.8419 32.5959L39.7657 32.4547L39.6394 32.4038L39.5969 32.3005L39.6199 32.1455L39.6974 31.9847L39.5907 31.9126L39.6994 31.8134L39.5815 31.653L39.4207 31.4472L39.3574 31.2755L39.2111 31.1155L39.0444 30.8855L39.104 30.8063L39.1582 30.8834L39.1953 30.8472L39.1528 30.6884L39.0365 30.6438L38.9694 30.7638L38.7336 30.7559L38.5949 30.7072L38.4436 30.6059L38.2224 30.5747L38.1265 30.4655L37.934 30.3768L37.6807 30.3676L37.5136 30.2672L37.3365 30.0572L36.9936 29.5113L36.8215 29.3468L36.5203 29.2147L36.2849 29.2518L35.9132 29.4422L35.6961 29.4918L35.4403 29.3584L35.159 29.2622L34.8374 29.0301L34.5515 28.9593L34.1544 28.7243L33.8824 28.483L33.8182 28.348L33.6011 28.318L33.2344 28.1584L33.1357 27.9284L32.7919 27.643L32.6936 27.3263L32.6799 27.0818L32.8299 27.0326L32.8378 26.8897L32.9749 26.7601L33.0378 26.5872L32.9844 26.3626L33.0219 26.1638L32.9836 25.9122L32.8303 25.4172L32.5949 25.0297L32.5361 24.7209L32.2899 24.5188L32.2724 24.3984L32.4715 24.0934L32.3274 23.9784L32.2124 23.7393L32.2844 23.3968L32.0965 23.3568L32.0044 23.0988L31.949 22.8605L32.0132 22.7084L32.0078 22.3409L32.0828 21.9688L32.1957 21.7826L32.0353 21.5905L31.8965 21.6118L31.7615 21.478L31.5832 21.6751L31.5094 21.9072L31.3365 22.2718L31.3544 22.473L31.4549 22.8084L31.4565 22.9238L31.4965 22.9584L31.459 23.1268L31.5311 23.1197L31.4457 23.4359L31.5003 23.5605L31.4965 23.7347L31.6186 23.9851L31.5328 24.4438L31.5507 24.6601L31.5565 24.8922L31.4644 25.1534L31.6474 25.1701L31.7103 25.3959L31.7624 25.6176L31.7165 25.7068L31.4769 25.8901L31.4078 25.8876L31.4257 25.5847L31.2853 25.3018L31.1049 25.0618L30.9594 24.9355L31.1353 24.5738L31.2003 24.3059L31.0869 24.153L30.9257 23.9334L30.8436 23.9963L30.8086 23.8684L30.6282 23.7493L30.5457 23.4638L30.5928 23.4272L30.7378 23.4547L30.9753 23.2718L31.1057 23.0509L30.9982 22.7026L30.8482 22.5672L30.8799 22.263L30.9236 21.9451L30.9803 21.5576L31.0965 21.1234L31.1907 20.8776L31.1294 20.6018L30.994 20.5443L31.0457 20.4068L30.854 20.3826L30.8099 20.253L30.4986 20.2063L30.4582 20.1288L30.5986 19.8676L30.5915 19.3901L30.7928 18.7338L30.8915 18.6247L30.8569 18.4697L30.9015 18.0772L31.1732 17.6968L31.2044 17.4434L31.6211 17.0597L31.9686 16.6643L32.1865 16.3134L32.7332 15.8838L33.6357 15.063L34.2065 14.4626L34.5169 14.083L34.6515 13.8772L34.7874 13.7913L35.0878 13.9413L34.8069 14.3597L35.0136 14.2426L35.3565 13.8797L35.6511 13.5188L35.6099 13.5176L35.4928 13.088V12.9005L35.1453 12.7209L35.4553 12.3397L35.8411 12.0763L35.6903 11.8951L36.1028 11.5526L36.169 11.2468L36.4724 11.0309L36.5394 10.8738L36.4782 10.7409L36.9432 10.3801L37.0953 10.048L37.5665 9.66384L37.3424 9.63717L36.9153 9.62759L36.7878 9.51133L36.9528 9.09467L36.8299 9.01925L36.6199 8.87717L36.1832 8.91092L36.004 8.72883L36.0169 8.56092L35.5565 8.64425L35.0728 8.91925L34.874 8.94467L34.4003 9.02759L33.8999 9.16258L33.4328 9.24717L33.8532 9.01217L34.7511 8.62342L35.279 8.50217L35.4078 8.40425L34.6228 8.623L33.909 8.88592L32.9549 9.16967L32.7757 9.36425L31.9574 9.65425L31.3353 9.82383L30.819 9.94842L30.4099 10.1293L29.5711 10.3413L29.124 10.5355L28.4628 10.7122L28.3207 10.6805L27.8374 10.7963L27.2819 10.9384L26.7849 11.078L26.0603 11.198L26.1415 11.1276L26.8199 10.9322L27.3424 10.8034L28.0719 10.5763L28.5178 10.5297L28.9744 10.3605L29.8324 10.1143L30.0503 10.0322L30.5328 9.88842L31.1749 9.5805L31.7844 9.34259L31.2244 9.46425L31.2732 9.39509L30.8319 9.54175L31.0599 9.33717L30.6957 9.48175L30.9965 9.28133L30.3949 9.44217L30.2261 9.44175L30.6919 9.203L31.0465 9.05633L31.1715 8.91467L30.6578 8.99092L30.8319 8.80425L30.8565 8.70925L31.3503 8.48675L31.5257 8.31967L32.1428 8.09592L32.8578 7.88008L33.4169 7.68342L33.6882 7.6555L33.7165 7.71633L34.3586 7.53217L34.4624 7.56467L34.9344 7.44675L35.3065 7.27383L35.3349 7.20592L35.8744 7.0605L35.7136 7.06508L35.2519 7.14675L34.9707 7.23008L34.9836 7.14717L34.5311 7.18925L34.4019 7.09883L34.6886 6.94842L34.9561 6.73217L35.7044 6.578L36.7124 6.39842H36.904L36.3811 6.58217L36.9165 6.56758L37.3299 6.34092L37.4249 6.20175L37.7661 6.02133L37.9878 5.868L38.0107 5.75508L38.6861 5.56925L39.1082 5.55758L39.8599 5.39758L40.4261 5.22758L41.1474 5.06342L41.4736 5.02383L42.3386 4.87175L42.4565 4.89425L43.3349 4.713L43.4207 4.78425L43.1007 4.93842L43.3919 4.87217L43.6778 4.89258L43.4319 4.97133L43.5794 5.03008L43.8911 4.9955L44.0207 5.10425L44.334 5.13675L44.3728 5.18175L44.8074 5.1255L44.8461 5.22967L44.9486 5.27842L45.1286 5.36258L45.0415 5.53175L45.1886 5.56425L45.7424 5.41717L46.2757 5.308L46.4874 5.35092L47.1849 5.19758L47.7432 5.11133L47.5365 5.25508L47.8915 5.17383L48.3365 5.01133L48.3899 5.048L48.0065 5.35925L48.8419 5.12342L48.2561 5.38758L48.6511 5.33008L48.9649 5.22842L49.1761 5.24842L49.1744 5.39508L49.4011 5.52425L49.5749 5.58425L49.8369 5.56133L49.7653 5.74092L49.0957 5.918L49.3503 5.9955L50.0411 5.953L50.3528 5.89008L50.1882 6.10592L50.7736 5.92342L50.8324 5.77175L51.2094 5.6505L51.5082 5.63425L51.7515 5.59883L51.7686 5.68342L51.634 5.87717L51.9361 5.84842L52.0461 6.01008L52.4957 5.953L52.8099 5.96175L53.1669 5.73925L53.4719 5.67717L53.6082 5.79758L53.0428 6.13758L53.6594 5.85092L53.8232 5.8605L54.5232 5.50383L54.6699 5.28758L54.6753 5.14717L55.4007 4.76842L56.1115 4.52383L56.2699 4.57758L56.1932 4.72633L55.779 5.11217L55.2961 5.28258L55.574 5.35342Z" fill="#BBBBBB"/>
<path id="Vector_92" d="M53.3081 4.12574L52.8347 4.27991L53.5035 4.18033L53.376 4.34699L53.9902 4.17824L53.9131 4.28658L53.3368 4.61408L53.7435 4.47533L54.3806 4.13616L54.6593 4.08824L54.7264 4.14074L54.6402 4.27324L54.0539 4.59824L53.6172 4.83699L53.6214 5.00616L53.6814 5.16991L53.3685 5.32283L52.9639 5.35116L52.8485 5.48574L52.5356 5.61533L52.2427 5.55949L52.0502 5.46449L51.7564 5.48616L51.1131 5.60574L50.3381 5.66783L49.9927 5.69199L50.2139 5.52533L50.1185 5.42949L49.8431 5.46866L50.1785 5.19199L50.401 5.15491L50.8552 5.09616L51.1168 5.11199L51.5202 5.05158L51.2935 4.97116L50.7885 4.99866L50.5102 4.99158L50.6914 4.86574L51.4802 4.72949L51.1564 4.73408L51.0164 4.64491L51.796 4.39408L52.2597 4.26241L53.2727 4.06241L53.3081 4.12574Z" fill="#BBBBBB"/>
<path id="Vector_93" d="M55.3673 4.02837L54.7089 4.24462L54.9398 4.01546L55.1106 3.97004L55.3906 3.95712L55.3673 4.02837Z" fill="#BBBBBB"/>
<path id="Vector_94" d="M60.4858 4.1317L60.3533 4.22295L60.1654 4.21295L59.9704 4.20587L59.6849 4.25045L59.6633 4.23045L59.7558 4.0567L59.9724 3.94003L60.1004 3.91837L60.4641 3.95295L60.4858 4.1317Z" fill="#BBBBBB"/>
<path id="Vector_95" d="M58.5752 4.11417L58.3481 4.31918L59.0106 4.05459L59.731 3.92126L59.456 4.25876L59.0589 4.47626L59.6077 4.37959L60.0089 4.24792L60.1694 4.41543L60.1956 4.57501L60.0014 4.72209L60.4885 4.64584L60.3914 4.86209L60.7056 4.99709V5.13626L60.4977 5.46251L59.8956 5.62709L60.1394 5.85918L60.406 5.93793L60.3706 6.27043L60.7085 6.29418L60.3739 6.55126L59.5235 6.98209L59.3881 6.82293L59.3923 6.46751L59.0389 6.51334L58.7769 6.72501L58.7981 6.94126L58.9506 7.11334L58.9514 7.21334L58.7481 7.58876L58.4014 7.86459L58.1789 7.76043L57.851 7.45418L57.8781 7.78376L57.9223 8.01668L57.8385 8.15168L57.2848 7.99709L56.9606 7.77334L56.8489 7.58668L57.0506 7.47959L56.8923 7.28459L56.7414 7.10168L56.6202 7.21084L55.8394 7.27084L55.7852 7.14168L56.2794 6.86626L56.7389 6.85959L57.2889 6.81209L57.3656 6.67959L57.6685 6.49584L58.401 6.14084L58.5369 5.98126L58.6056 5.85876L58.4919 5.68543L58.211 5.56501L58.4739 5.47584L58.5552 5.25834L58.396 5.23876L58.4052 5.12042L58.1389 5.22293L57.686 5.26751L57.0352 5.19001L56.7552 5.08834L56.5039 5.03626L56.5394 4.91584L57.0256 4.76043L56.7402 4.75876L57.3002 4.41834L58.0119 4.12334L58.4656 3.99001L59.1127 3.90417L58.5752 4.11417Z" fill="#BBBBBB"/>
<path id="Vector_96" d="M56.4524 3.89139L56.5216 3.9593L56.9433 3.91847L56.7887 4.01222L56.2795 4.16889L56.2758 4.31097L55.6395 4.61139L55.0524 4.7418L54.9128 4.71389L55.0333 4.58514L55.0841 4.32722L55.3178 4.2218L55.6224 4.26264L55.8799 4.04805L56.4524 3.89139Z" fill="#BBBBBB"/>
<path id="Vector_97" d="M102.193 4.09627L101.913 4.09836L101.413 4.0621L101.327 4.0446L101.106 3.91669L101.242 3.88669L101.9 4.01044L102.193 4.09627Z" fill="#BBBBBB"/>
<path id="Vector_98" d="M57.0626 4.24043L56.3659 4.48877L56.1647 4.47627L56.6301 4.18543L56.9726 4.02293L57.3626 3.88543L57.7334 3.79752L58.0905 3.80877L58.2805 3.8871L57.418 4.17668L57.0626 4.24043Z" fill="#BBBBBB"/>
<path id="Vector_99" d="M50.674 4.69878L49.7294 4.86795L49.9857 4.7192L49.9728 4.54086L50.3215 4.4317L51.1998 4.15795L51.9465 3.9442L52.3211 3.74711L53.074 3.69711L53.1482 3.76378L53.5657 3.78128L53.4969 3.8742L53.3444 4.01045L52.8986 4.09253L51.8436 4.32378L51.019 4.55711L50.674 4.69878Z" fill="#BBBBBB"/>
<path id="Vector_100" d="M101.482 3.49663L101.719 3.62121L101.336 3.59288L100.574 3.46871L100.257 3.36746L100.748 3.41455L101.482 3.49663Z" fill="#BBBBBB"/>
<path id="Vector_101" d="M58.4807 3.52923L58.1132 3.65173L57.9057 3.62798L57.8769 3.54548L58.2965 3.40464L58.7398 3.32089L58.6394 3.43006L58.4807 3.52923Z" fill="#BBBBBB"/>
<path id="Vector_102" d="M99.9653 3.34713L100.637 3.57963L99.9524 3.57088L99.9024 3.64588L98.8816 3.44088L98.2562 3.22796L98.2778 3.17004L98.7687 3.18379L99.9653 3.34713Z" fill="#BBBBBB"/>
<path id="Vector_103" d="M58.933 2.99283L58.7039 3.13325L58.3222 3.29116L57.693 3.52283L57.3255 3.55533L57.2555 3.50491L57.7043 3.32283L57.3634 3.34658L57.9622 3.10908L58.1159 3.11866L58.633 3.01533L58.8193 3.03241L58.933 2.99283Z" fill="#BBBBBB"/>
<path id="Vector_104" d="M56.9109 3.15053L56.6805 3.2597L56.9692 3.20845L57.1101 3.22178L56.7446 3.37303L56.2592 3.52136L55.5355 3.57011L54.728 3.70761L54.4338 3.7147L54.6851 3.61136L55.4255 3.47178L54.5296 3.5097L54.4421 3.45345L55.5484 3.15136L55.9571 3.06595L56.1255 3.16886L55.9205 3.35136L56.1584 3.37511L56.7251 3.08095L57.1896 2.97095L57.258 3.00595L56.9109 3.15053Z" fill="#BBBBBB"/>
<path id="Vector_105" d="M86.8824 4.93048L86.7937 4.96006L86.0704 4.91548L85.8566 4.76423L85.3949 4.67339L85.1754 4.49214L85.2999 4.42048L85.0933 4.23964L85.1445 3.96089L84.9262 3.92131L85.012 3.64089L84.7754 3.49756L84.9374 3.33298L85.202 3.13506L85.6633 3.07798L85.7533 2.96589L85.9995 2.92673L86.3258 3.04589L86.3808 3.14048L86.0362 3.29298L85.7379 3.44131L85.6099 3.74173L85.742 4.05673L85.8224 4.37339L86.1799 4.65131L86.8824 4.93048Z" fill="#BBBBBB"/>
<path id="Vector_106" d="M59.8393 2.87962L59.7781 2.97629L60.1006 2.97504L60.0064 3.07462L59.7031 3.18962L59.7402 3.25879L59.6856 3.33254L59.8877 3.34629L60.0839 3.37212L60.4981 3.30504L60.9002 3.27879L61.1335 3.30045L61.0872 3.41754L60.8781 3.54712L60.6085 3.63129L60.2118 3.69962L60.056 3.66087L59.4431 3.70962L59.0606 3.71545L58.8506 3.67587L58.5931 3.57379L58.9139 3.4017L59.2435 3.24795L59.3897 3.11462L59.1372 3.07754L59.1818 2.98379L59.5581 2.86087L59.8393 2.87962Z" fill="#BBBBBB"/>
<path id="Vector_107" d="M56.9057 2.71759L56.1682 2.94592L55.7236 3.05051L55.5244 3.06551L54.8194 3.19592L54.4065 3.24301L54.3824 3.17634L55.3761 2.94926L56.3249 2.75676L56.5524 2.76092L56.9057 2.71759Z" fill="#BBBBBB"/>
<path id="Vector_108" d="M92.234 2.91654L92.6948 3.06529L92.6394 2.99195L93.1273 2.9957L93.9277 3.14404L94.3911 3.25862L94.7994 3.41987L94.8582 3.51279L94.8494 3.68821L94.9523 3.78279L95.2915 3.82779L95.7677 3.90904L95.7798 3.8482L96.3986 4.05612L96.269 3.97154L96.4357 3.92029L97.1719 3.97362L97.6152 4.12612L98.5398 4.17487L97.8782 3.92612L98.4298 3.98279L98.724 3.98112L99.5077 4.15279L100.176 4.36404L100.433 4.50362L101.377 4.76904L102.055 4.90737L101.315 4.55196L102.045 4.70362L102.141 4.61279L102.816 4.71612L102.701 4.62154L103.163 4.66904L102.129 4.35821L101.96 4.21529L104.371 4.42987L105.151 4.62862L106.466 4.88821L107.098 4.82404L107.68 4.87987L108.291 5.02196L109.033 5.27487L109.592 5.37446L109.664 5.30279L110.016 5.29362L110.629 5.36196L110.916 5.32321L112.255 5.63612L112.179 5.52279L111.304 5.29904L110.904 5.14446L111.894 5.24154L112.268 5.22112L113.431 5.38737L114.236 5.54071L118.604 6.98904L118.609 6.99112L118.751 7.15571L118.359 7.12821L119.124 7.32904L120.103 7.64237L120.488 7.74571L120.929 7.90487L121.123 8.00696L120.431 7.92279L120.432 8.21487L120.31 8.25987L120.559 8.53487L120.727 8.77737L121.031 8.95737L120.035 8.68362L120.021 8.99446L119.578 8.84696L119.686 9.01696L119.207 8.96237L119.673 9.22529L120.137 9.61487L120.473 9.77862L120.973 9.86987L122.087 10.467L121.848 10.4824L122.363 10.829L122.81 11.009L122.673 11.2228L123.396 11.7045L123.117 11.8082L123.732 12.242L123.916 12.6432L123.339 12.3461L122.207 11.7232L120.458 10.7895L119.568 10.2161L119.354 9.97154L119.007 9.78154L119.267 9.69071L118.749 9.18362L118.357 8.77446L118.148 8.45987L117.104 7.91154L116.869 7.94446L117.443 8.26362L117.719 8.69487L116.455 8.21279L116.069 8.34487L116.776 9.00654L117.488 9.25154L117.079 9.35612L116.733 9.39779L116.194 9.10779L115.654 9.04737L115.693 9.24404L114.727 9.17487L114.044 9.29362L114.505 10.0849L114.929 11.0611L115.474 11.114L116.013 11.3774L116.443 11.4711L116.319 11.2603L116.686 11.2878L117.819 11.7524L118.359 12.1153L118.726 12.544L119.408 13.062L120.178 13.7615L120.481 14.4024L120.737 14.7107L120.886 15.234L121.004 15.7557L121.069 16.0245L120.888 16.292L120.677 16.2978L120.236 16.0765L120.112 16.4107L120.208 16.5632L120.05 16.5357L120.051 16.6911L120.096 16.8478L120.421 17.179L120.334 17.2811L120.347 17.3632L120.339 17.5003L120.172 17.5761L120.13 17.7015L120.295 17.9032L120.298 17.9545L120.505 18.0307L120.884 18.2357L121.659 18.7899L121.999 19.0957L122.435 19.6415L122.498 19.9028L122.234 19.994L122.086 20.1924L121.784 20.2332L121.551 19.9732L121.35 19.6161L120.807 19.1232L121.014 19.0436L120.441 18.6403L120.193 18.5511L120.221 18.6395L120.147 18.6782L120.063 18.5899L119.935 18.5465L119.777 18.472L119.705 18.2653L119.744 18.2107L119.641 18.1249L119.518 17.8732L119.429 17.797L119.179 17.7465L118.904 17.6215L118.526 17.757L118.447 17.9749L118.167 18.102L118.179 17.8857L117.954 17.7045L117.968 17.3924L117.572 17.1499L117.407 17.3128L117.282 17.6357L117.31 17.9365L116.979 17.959L116.97 18.177L117.406 18.4936L117.759 18.5711L117.934 18.7824L118.324 18.9199L118.469 18.584L118.932 18.767L119.175 18.779L119.426 19.0261L119.013 19.1586L119.033 19.4136L118.851 19.652L118.899 19.9853L119.479 20.2478L119.945 20.7186L120.465 21.1595L120.959 21.5303L121.179 21.8899L121.023 22.0224L121.27 22.2811L121.585 22.4324L121.759 22.8299L121.881 23.217L121.69 23.2611L121.694 23.7928L121.708 24.4395L121.627 25.0303L121.293 25.4882L120.923 25.9074L120.5 25.9645L120.348 26.1861L120.145 26.0245L120.019 26.272L119.561 26.5228L119.168 26.5995L119.224 27.1282L119.012 27.1578L118.777 26.794L118.801 26.6003L118.207 26.4403L118.049 26.522L117.669 26.9499L117.495 27.424L117.519 27.7728L117.991 28.3036L118.56 28.9632L119.014 29.2757L119.369 29.6828L119.784 30.6228L119.918 31.5186L119.638 31.8545L119.224 32.1828L118.957 32.609L118.511 33.0853L118.314 32.7574L118.377 32.4107L118.023 32.1207L117.666 32.0461L117.452 31.7803L117.147 31.2532L116.732 31.0195L116.384 31.029L116.363 30.629L116.002 30.6324L116.081 31.1924L115.991 31.9374L115.929 32.3882L116.011 32.7586L116.283 32.7745L116.513 33.2415L116.641 33.6845L116.905 33.9782L117.162 34.0378L117.404 34.304L117.504 34.352L117.778 34.662L117.98 35.0053L118.029 35.3507L117.999 35.5845L118.05 35.7611L118.095 36.0653L118.247 36.2065L118.426 36.6615L118.422 36.8353L118.127 36.8699L117.724 36.4886L117.216 36.0807L117.155 35.8195L116.895 35.4757L116.809 35.0507L116.638 34.7703L116.651 34.397L116.539 34.1799L116.355 33.9828L116.256 33.7286L116.003 33.4399L115.772 33.197L115.741 33.4982L115.628 33.2136L115.631 32.894L115.684 32.4036L115.584 32.0245L115.646 31.6336L115.453 31.332L115.381 30.7774L115.161 30.5132L114.897 29.9057L114.673 29.2653L114.393 28.8461L114.189 29.1003L113.814 29.4611L113.575 29.4157L113.295 29.297L113.282 28.6703L113.074 28.1978L112.598 27.6174L112.595 27.4365L112.341 27.372L111.937 26.9628L111.743 26.702L111.641 26.447L111.489 26.2065L111.228 25.9161L110.856 25.8961L110.959 26.1015L110.922 26.3799L110.721 26.2786L110.692 26.3695L110.562 26.3149L110.394 26.2699L110.394 26.4524L110.121 26.4461L109.661 26.5503L109.793 26.9265L109.661 27.2232L109.174 27.5611L108.872 28.1532L108.643 28.4715L108.313 28.802L108.362 29.0345L108.186 29.1595L107.857 29.3407L107.672 29.3674L107.625 29.754L107.829 30.414L107.92 30.8361L107.821 31.3203L107.939 32.187L107.729 32.2115L107.587 32.6015L107.733 32.7699L107.371 32.9149L107.268 33.2632L107.116 33.4099L106.676 32.9324L106.405 32.2161L106.182 31.7015L106.005 31.4603L105.717 30.9707L105.518 30.3345L105.395 30.0174L104.902 29.3207L104.544 28.3415L104.287 27.6974L104.151 27.089L103.961 26.6199L103.451 26.919L103.156 26.8595L102.492 26.2536L102.639 26.0728L102.473 25.8774L101.902 25.4549L101.581 25.329L101.37 24.9724L100.967 24.5957L100.27 24.6886L99.6365 24.6974L99.1019 24.7674L98.3286 24.6178L97.8748 24.504L97.4186 24.4399L97.1061 23.8357L96.899 23.7486L96.6223 23.8361L96.2869 24.0745L95.774 23.9107L95.2952 23.5332L94.8907 23.3936L94.524 22.929L94.084 22.279L93.8986 22.3578L93.6169 22.1965L93.5207 22.3865L93.2886 22.3624L93.4186 22.5778L93.4102 22.689L93.6173 23.0574L93.8623 23.4799L94.0769 23.5924L94.1807 23.7649L94.4902 23.9715L94.5569 24.1749L94.5527 24.3395L94.6365 24.5053L94.7777 24.6436L94.8627 24.8061L94.9457 24.9274L94.8465 24.5674L94.8969 24.3082L94.9923 24.2549L95.1436 24.4099L95.2115 24.699L95.1861 24.9903L95.299 25.1803L95.3644 25.1557L95.4057 25.292L95.6982 25.214L96.0265 25.227L96.2673 25.2411L96.4652 24.9061L96.6877 24.5886L96.8644 24.2845L96.9377 24.1161L96.9965 24.159L97.0077 24.3628L96.9777 24.4524L97.1202 24.8432L97.3715 25.1815L97.6311 25.362L97.9344 25.427L98.1877 25.5174L98.4286 25.8032L98.5711 25.9686L98.7261 26.0315L98.749 26.1432L98.6661 26.4407L98.6307 26.5807L98.4944 26.7407L98.4115 27.084L98.2248 27.0574L98.1636 27.1774L98.1457 27.432L98.254 27.7678L98.2269 27.8295L98.0411 27.8282L97.8211 28.0165V28.2615L97.7461 28.3682L97.4936 28.364L97.3548 28.4911L97.3877 28.6953L97.2119 28.8353L96.9815 28.7878L96.7344 28.9582L96.5511 28.987L96.2757 29.1224L96.2269 29.3478L96.239 29.5203L95.8598 29.7345L95.2357 29.9707L94.909 30.3295L94.7319 30.3574L94.6061 30.3274L94.3882 30.5382L94.1369 30.6357L93.7957 30.6624L93.6948 30.6911L93.6173 30.8257L93.5132 30.8628L93.4615 30.992L93.2577 30.9807L93.1323 31.0503L92.8461 31.024L92.7136 30.727L92.7007 30.4486L92.6194 30.2986L92.5032 29.9236L92.3657 29.7149L92.4444 29.6903L92.3794 29.4586L92.4182 29.3607L92.3761 29.1403L92.3002 28.924L92.1607 28.772L92.1065 28.5707L91.8769 28.3899L91.6115 27.967L91.4477 27.557L91.1269 27.2115L90.9377 27.129L90.6115 26.652L90.5186 26.3045L90.4948 26.0086L90.1894 25.457L89.9761 25.2628L89.7486 25.1599L89.5777 24.8757L89.5823 24.7645L89.4357 24.5078L89.3048 24.3974L89.0961 24.0307L88.7977 23.6336L88.5473 23.297L88.3557 23.2995L88.3727 23.0307L88.3619 22.859L88.3769 22.664L88.3527 22.594L88.2777 22.7903L88.2544 23.1595L88.189 23.4145L88.1123 23.4999L87.9594 23.342L87.7523 23.1232L87.3698 22.4236L87.3377 22.4678L87.5765 22.9828L87.8873 23.4749L88.2927 24.2415L88.4752 24.5099L88.6398 24.789L89.0686 25.3382L89.0015 25.4245L89.0573 25.7482L89.5769 26.1957L89.6598 26.2978L89.8502 26.7886L89.7732 26.879L89.8927 27.3957L90.1077 27.9961L90.2748 28.1203L90.5161 28.3065L90.8127 28.8907L90.9707 29.3553L91.2173 29.602L91.819 30.0815L92.0727 30.3711L92.3207 30.6645L92.464 30.8395L92.6782 30.992L92.7886 31.1499L92.7927 31.3615L92.5682 31.4832L92.7552 31.6232L92.8965 31.717L92.9927 31.9282L93.194 32.1415L93.399 32.1436L93.7782 32.0128L94.2223 31.952L94.5723 31.794L94.7736 31.7603L94.9127 31.6674L95.1457 31.649L95.2765 31.6395L95.4594 31.5632L95.6727 31.512L95.8511 31.3374L96.0069 31.3361L96.0294 31.477L96.0182 31.7736L96.0423 32.042L95.9707 32.2265L95.8961 32.779L95.7352 33.3507L95.5161 34.0049L95.1936 34.757L94.859 35.332L94.3873 36.0324L93.9777 36.4482L93.3598 36.9586L92.9736 37.3499L92.5165 37.9724L92.4182 38.2432L92.3227 38.3649L92.0286 38.5707L91.9227 38.7849L91.7661 38.8224L91.7002 39.1845L91.5623 39.3915L91.4732 39.7332L91.3007 39.9032L91.089 40.5353L91.1032 40.8261L91.3615 41.0128L91.3682 41.1461L91.2402 41.4553L91.2565 41.6111L91.2177 41.8553L91.3448 42.1761L91.4865 42.6803L91.6307 42.7924L91.6827 43.0211L91.6298 43.5299L91.6465 43.9765L91.5957 44.7715L91.6452 45.0203L91.489 45.3824L91.2961 45.7345L91.0061 46.0482L90.6157 46.2403L90.134 46.4853L89.6215 47.0266L89.4565 47.1182L89.1377 47.4761L88.9598 47.592L88.8865 47.9499L89.0323 48.329L89.0757 48.6224L89.0627 48.772L89.1361 48.747L89.0623 49.2361L88.9682 49.467L89.0494 49.552L88.9632 49.759L88.7744 49.9353L88.4277 50.1028L87.9202 50.3703L87.7244 50.5532L87.7294 50.7611L87.8244 50.7949L87.7548 51.0541L87.6065 51.412L87.5011 51.8195L87.3686 52.0403L87.0698 52.287L86.9844 52.3574L86.7852 52.6049L86.6411 52.8549L86.3727 53.2024L85.8694 53.7016L85.5607 53.9903L85.2452 54.2091L84.8277 54.3953L84.6344 54.4203L84.5673 54.5536L84.3519 54.4828L84.1552 54.5736L83.7652 54.4811L83.5327 54.5399L83.3823 54.5149L82.9761 54.7036L82.6511 54.7795L82.4015 54.9599L82.2327 54.9711L82.0952 54.8011L81.9715 54.7924L81.8348 54.5791L81.8107 54.6449L81.7744 54.5165L81.8052 54.2353L81.7157 53.9128L81.8452 53.8253L81.8711 53.4549L81.6652 53.0016L81.5094 52.5899L81.509 52.5886L81.2844 51.9545L81.0252 51.5841L80.8982 51.2257L80.8436 50.7457L80.769 50.3882L80.6811 49.6249L80.704 49.0299L80.6669 48.7574L80.5223 48.5516L80.3348 48.1382L80.1498 47.5361L80.0744 47.2207L79.7636 46.729L79.7515 46.342L79.7232 46.024L79.7927 45.579L79.9465 45.1149L79.974 44.897L80.1186 44.439L80.2219 44.2307L80.4661 43.8978L80.6036 43.6711L80.6561 43.2932L80.6415 43.0036L80.5219 42.8215L80.4182 42.5111L80.3223 42.2045L80.3465 42.0978L80.4777 41.8953L80.3598 41.4003L80.2798 41.0574L80.0757 40.7328L80.1169 40.6332L80.0602 40.474L79.9532 40.0882L79.6157 39.5445L79.1911 39.0257L78.9173 38.602L78.6657 38.0711L78.679 37.9003L78.7707 37.7357L78.8715 37.3615L78.9552 36.9807L78.8773 36.9032L79.0186 36.3261L79.0777 35.9207L78.9136 35.5811L78.7232 35.4936L78.6373 35.2636L78.5307 35.1895L78.5344 35.0478L78.1036 35.2328L77.9461 35.2057L77.7865 35.3207L77.4536 35.3095L77.2298 34.9882L77.0915 34.617L76.7961 34.2786L76.484 34.2853L76.1177 34.2849L75.7744 34.3449L75.4402 34.454L74.789 34.7545L74.5577 34.9307L74.1832 35.0795L73.8132 34.9336L73.624 34.939L73.334 34.8386L73.0677 34.8449L72.5752 34.934L72.2857 35.0824L71.8727 35.2707L71.7927 35.257L71.6836 35.2615L71.2565 35.0165L70.8819 34.6261L70.5307 34.3453L70.2548 34.0149L70.1436 33.977L69.8477 33.7703L69.6357 33.4957L69.5661 33.3086L69.5219 32.9303L69.3465 32.6278L69.1898 32.4278L69.0857 32.3611L68.9848 32.2603L68.9436 32.0345L68.8861 31.9215L68.7682 31.8378L68.554 31.6249L68.3819 31.5907L68.2915 31.447L68.2961 31.3695L68.1744 31.2615L68.1519 31.1524L68.0973 30.7624L68.1573 30.5365L68.0032 30.1411L67.8065 29.9599L67.9898 29.864L68.2015 29.5078L68.309 29.2478L68.2848 28.9753L68.409 28.7261L68.4807 28.2507L68.4594 27.7532L68.4232 27.5032L68.4761 27.2528L68.3852 27.0145L68.1865 26.7978L68.2157 26.587L68.2477 26.3549L68.4082 26.219L68.5532 25.959L68.5377 25.7903L68.6944 25.439L68.9327 25.1236L69.0702 25.0436L69.1911 24.7545L69.2161 24.4915L69.3757 24.1857L69.6457 24.0065L69.9207 23.5045L70.1332 23.309L70.4948 23.2549L70.8157 22.9207L71.0144 22.7903L71.3532 22.3832L71.2873 21.779L71.4515 21.3632L71.5148 21.109L71.7715 20.7845L72.1548 20.5649L72.4386 20.3674L72.704 19.8728L72.8298 19.5807L73.099 19.5832L73.3144 19.7845L73.664 19.752L74.0427 19.857L74.2023 19.8615L74.5577 19.602L74.954 19.5195L75.184 19.324L75.5336 19.1799L76.1482 19.0957L76.7473 19.0574L76.9327 19.1278L77.2673 18.9411L77.6544 18.9374L77.8069 19.0474L78.0532 19.019L78.4365 18.8286L78.6932 18.8853L78.6982 19.124L78.994 18.9503L79.0261 19.0407L78.8602 19.2724L78.8719 19.4915L79.0065 19.6095L78.9844 20.022L78.7561 20.2615L78.8419 20.5224L79.0344 20.5303L79.1423 20.7586L79.2886 20.8336L79.7382 20.999L79.8923 20.9578L80.2111 21.0382L80.7257 21.2536L80.9369 21.6832L81.284 21.777L81.8357 21.9803L82.2627 22.2215L82.4361 22.0953L82.5957 21.872L82.4694 21.5011L82.5627 21.2665L82.8077 21.0407L83.0582 20.9753L83.5765 21.0736L83.7311 21.2886L83.8711 21.2911L84.0007 21.3732L84.3823 21.4303L84.4952 21.5899L84.9957 21.5815L85.3773 21.7099L85.7736 21.8524L85.9598 21.9282L86.2282 21.7745L86.3623 21.6357L86.689 21.5961L86.9673 21.657L87.1098 21.8974L87.1719 21.739L87.494 21.8536L87.7936 21.8807L87.959 21.759L88.0407 21.5995L88.0094 21.572L88.0682 21.3461L88.0761 20.9824L88.1065 20.8607L88.1157 20.8557L88.1711 20.4649L88.2865 20.1282L88.2894 20.1115L88.1782 19.747L88.2257 19.5515L88.044 19.3365L88.1423 19.1586L87.9294 19.199L87.6015 19.0903L87.4094 19.3624L86.8665 19.4161L86.5215 19.162L86.1265 19.1457L86.0798 19.342L85.8382 19.3986L85.4402 19.1461L85.0452 19.1549L84.7494 18.6853L84.4415 18.4253L84.5511 18.0607L84.2857 17.8378L84.5948 17.3936L85.1327 17.3749L85.2069 17.0232L85.8861 17.0845L86.2357 16.7857L86.6082 16.6553L87.1786 16.6457L87.8711 16.9699L88.4207 17.1486L88.8082 17.0774L89.1207 17.1186L89.4611 16.8778L89.4527 16.6811L89.269 16.3682L89.0173 16.1999L88.8111 16.1474L88.6427 16.0078L88.0902 15.6236L87.6527 15.4532L87.2823 15.1878L87.504 15.1165L87.6615 14.7407L87.4194 14.564L87.8436 14.3824L87.8019 14.2853L87.5319 14.357L87.2819 14.3924L87.1094 14.5361L86.8082 14.5599L86.574 14.7265L86.6757 15.0053L86.8702 15.1136L87.2032 15.0865L87.1861 15.2474L86.8415 15.3253L86.4569 15.5865L86.244 15.4949L86.2607 15.2824L85.8586 15.1507L85.8948 15.0645L86.1723 14.9153L86.0477 14.8124L85.5015 14.6999L85.4336 14.5332L85.1427 14.5882L85.084 14.8345L84.9086 15.1661L84.9448 15.282L84.8052 15.3795L84.6932 15.337L84.7236 15.8836L84.5882 16.0724L84.5323 16.399L84.6986 16.6607L84.7761 16.8378L85.1115 16.9865L85.0715 17.0995L84.6615 17.1249L84.5402 17.2678L84.2936 17.5178L84.1432 17.3015L84.1302 17.2065L83.9144 17.1932L83.7236 17.1495L83.3202 17.2699L83.6082 17.5303L83.4419 17.6061L83.2452 17.6065L83.0198 17.3674L82.9702 17.469L83.0932 17.747L83.3052 17.9657L83.1869 18.0678L83.4194 18.2836L83.6182 18.4195L83.6648 18.6849L83.3127 18.5603L83.4552 18.8003L83.2332 18.8499L83.4307 19.267L83.1898 19.2724L82.8632 19.067L82.6761 18.6895L82.5702 18.3774L82.4007 18.162L82.1815 17.8957L82.139 17.7628L82.0744 17.7303L82.0532 17.6278L81.8361 17.472L81.7757 17.2511L81.7611 16.9361L81.7882 16.7928L81.7194 16.7203L81.6415 16.6849L81.5236 16.5353L81.3615 16.444L81.0148 16.2745L80.7944 16.1103L80.4648 15.9749L80.1373 15.6407L80.2019 15.6065L80.0244 15.4161L80.0002 15.264L79.7761 15.1928L79.6952 15.3878L79.5794 15.2365L79.5694 15.0803L79.5802 15.0732L79.6498 15.0324L79.3773 14.9665L79.1227 15.1261L79.164 15.3503L79.1352 15.4786L79.2694 15.7095L79.6115 15.9382L79.824 16.3153L80.2486 16.6849L80.5198 16.682L80.6165 16.7836L80.5294 16.8753L80.8615 17.042L81.1357 17.182L81.4673 17.4232L81.5148 17.5099L81.4707 17.6761L81.2473 17.4595L80.9323 17.3832L80.819 17.6836L81.0948 17.8561L81.0811 18.0999L80.9348 18.1274L80.7873 18.5295L80.6411 18.5657L80.6277 18.422L80.6744 18.1707L80.7411 18.0711L80.5732 17.8007L80.4402 17.5661L80.2873 17.5082L80.1627 17.3078L79.9286 17.224L79.7586 17.0382L79.4977 17.0082L79.2065 16.7999L78.864 16.5007L78.6082 16.2374L78.4652 15.787L78.2923 15.7345L78.0057 15.5849L77.8544 15.6461L77.6715 15.8565L77.5319 15.8899L77.2365 16.1474L76.5569 16.0236L76.0632 16.172L76.0298 16.4474L76.054 16.714L75.7302 17.0207L75.2836 17.1182L75.2532 17.274L75.0382 17.5307L74.9011 17.9095L75.0398 18.1765L74.8327 18.3857L74.754 18.6911L74.4811 18.7849L74.2207 19.1478L73.759 19.1549L73.4127 19.1457L73.1802 19.3128L73.0352 19.492L72.8577 19.4524L72.7282 19.2924L72.6365 19.0207L72.3011 18.9474L72.1494 19.0703L71.9619 19.0036L71.7719 19.0553L71.8477 18.687L71.8307 18.3978L71.6732 18.3545L71.5986 18.1774L71.6461 17.8715L71.7986 17.7024L71.8352 17.5145L71.9261 17.2357L71.9307 17.0399L71.8715 16.874L71.8665 16.719L71.9061 16.3924L71.7794 16.1936L72.2852 15.8653L72.6969 15.947L73.1548 15.9445L73.5152 16.022L73.7994 15.9982L74.3511 16.0132L74.5307 15.7403L74.604 14.842L74.2702 14.3732L74.0344 14.149L73.5423 13.9786L73.5236 13.6574L73.9432 13.5615L74.4798 13.6749L74.3873 13.179L74.6848 13.3665L75.4232 13.0261L75.5119 12.6707L75.7827 12.584L76.0298 12.4986L76.1852 12.3807L76.4257 11.7515L76.829 11.5745L77.0798 11.5865L77.1323 11.497L77.3811 11.474L77.4448 11.567L77.6294 11.359L77.5465 11.2011L77.5102 10.9636L77.3698 10.7324L77.3215 10.3099L77.359 10.199L77.4282 10.0761L77.6757 10.0507L77.7623 9.93779L77.9748 9.82279L77.9919 10.0324L77.924 10.1661L77.9723 10.2811L78.1357 10.3432L78.0848 10.499L77.9932 10.454L77.8186 10.7524L77.9202 10.9553L77.9436 11.117L78.2544 11.2145L78.269 11.364L78.5623 11.2853L78.714 11.1699L79.074 11.3357L79.2352 11.4703L79.4207 11.3461L79.8519 11.152L80.1977 11.0103L80.5065 11.0807L80.5498 11.1832L80.8373 11.1886L80.8644 11.0045L81.2394 10.869L81.0936 10.5199L81.0273 10.2095L81.1015 9.95237L81.3302 9.81362L81.6386 10.1186L81.8648 10.1103L81.8282 9.79696L81.789 9.55821L81.7015 9.60862L81.4832 9.46529L81.3911 9.23487L81.7023 9.12321L82.0261 9.06529L82.3436 9.13112L82.6207 9.11904L82.8473 8.89946L82.4952 8.71112L82.0215 8.74237L81.5982 8.88779L81.1852 8.97154L80.9648 8.75487L80.669 8.62571L80.6148 8.23946L80.3844 7.89029L80.4369 7.66612L80.5865 7.42696L81.0023 7.01821L81.1332 6.93946L81.0457 6.78237L80.6465 6.60779L80.2773 6.71196L80.1336 6.97196L80.2469 7.20154L79.9469 7.50571L79.5494 7.83487L79.4952 8.38154L79.7486 8.65821L80.0582 8.87779L79.9144 9.32821L79.6482 9.42237L79.6802 10.104L79.5902 10.4895L79.2327 10.4495L79.1223 10.7782L78.7865 10.7974L78.6369 10.4057L78.3311 9.94029L78.0382 9.36737L77.8211 9.12154L77.3323 9.58654L76.9698 9.68112L76.569 9.47529L76.4407 9.04446L76.294 8.13612L76.5119 7.88696L77.1469 7.56529L77.5807 7.17446L77.9286 6.65446L78.3248 5.95112L78.6248 5.68237L79.0761 5.24154L79.4811 5.08987L79.834 5.10821L80.0186 4.82404L80.399 4.83946L80.729 4.77154L81.5182 5.02154L81.3027 5.11404L81.6607 5.33196L81.809 5.21071L82.2894 5.42154L82.9361 5.50571L84.0452 5.90737L84.3382 6.07862L84.5202 6.31987L84.3902 6.51237L84.0682 6.61029L82.8586 6.33154L82.714 6.37779L83.2457 6.64696L83.5794 7.20154L83.9586 7.31654L84.2065 7.41487L84.1361 7.23112L83.889 7.06404L83.9707 6.92821L84.6969 7.16112L84.8461 7.06946L84.5123 6.79612L84.8244 6.43529L85.0548 6.45612L85.3652 6.58487L85.3186 6.33279L84.9665 6.11654L84.9144 5.90071L84.5802 5.67946L85.2907 5.79404L85.5811 5.99446L85.3298 6.03862L85.4869 6.24029L85.7644 6.36487L86.0602 6.28571L85.9286 6.05446L86.2544 5.88362L86.7461 5.57821L86.9277 5.59571L86.9169 5.81154L87.229 5.84862L87.2702 5.72654L87.6748 5.71696L87.8486 5.56987L88.3261 5.78362L88.3227 5.54862L87.8707 5.34529L87.8523 5.23029L88.6044 5.33612L89.0315 5.44529L90.3115 5.85029L90.2332 5.66362L89.7798 5.47737L89.6802 5.40237L89.3782 5.36821L89.2419 5.20279L88.7852 4.93404L88.6361 4.82446L88.5911 4.51862L88.2832 4.21696L88.3294 4.15237L88.9694 4.23904L89.2919 4.42321L89.5052 4.69571L89.7869 4.80404L90.1923 5.04321L90.7911 5.52029L91.3177 5.73737L91.5286 5.97654L91.7036 6.49237L92.0352 6.54654L91.9715 6.41446L92.1132 6.32071L91.9511 6.14112L91.9282 5.96946L91.5323 5.76571L91.3223 5.53196L91.0452 5.50279L90.729 5.30779L90.409 4.96029L89.7394 4.68279L89.7544 4.45654L89.3382 4.22071L89.4219 4.21321L89.8165 4.39696L90.2373 4.72029L90.5482 4.78237L90.0827 4.53904L90.2052 4.40779L90.5823 4.39029L91.2644 4.58071L90.6223 4.30279L89.9944 3.95446L90.1982 3.88904L90.6698 3.90321L90.9882 3.86112L90.5098 3.69362L90.2927 3.48612L90.4765 3.47779L90.4786 3.3232L90.8369 3.28195L90.6973 3.19779L91.0707 3.16904L91.3748 3.23779L91.3477 3.07529L91.6648 3.0807L91.3673 2.95029L91.1769 2.8232L91.2052 2.70154L91.7494 2.79737L91.7407 2.87029L92.234 2.91654ZM92.1327 16.9949L92.4269 17.3224L92.5982 17.3445L92.7511 17.469L92.4736 17.5065L92.5357 17.8682L92.5294 18.0315L92.4348 18.1407L92.5194 18.3728L92.744 18.719L93.1173 18.817L93.4444 19.0536L93.9869 19.1349L94.5119 19.0103L94.5094 18.8999L94.3269 18.567L94.2044 18.077L93.8698 17.9186L93.844 17.5999L93.5994 17.5728L93.5315 17.182L93.9057 17.2957L94.1561 17.1478L93.7927 16.8707L93.5886 16.6078L93.3561 16.7249L93.4511 17.0628L93.2277 16.764L93.1644 16.652L93.174 16.4603L93.0452 16.3011L92.5857 16.1453L92.2686 15.7365L92.0352 15.622L91.9644 15.4745L92.3107 15.5174L92.1857 15.1874L92.4386 15.114L92.7602 15.1815L92.6261 14.7436L92.4415 14.4678L92.1219 14.489L91.7944 14.3803L91.499 14.5765L91.2307 14.6703L91.1894 14.9357L90.8961 15.0099L90.7427 15.4749L91.2119 15.9053L91.2911 16.212L91.8627 16.752L92.1327 16.9949Z" fill="#BBBBBB"/>
<path id="Vector_109" d="M60.2922 2.7543L60.1989 2.76305L59.9543 2.74389L60.1322 2.6618L60.431 2.66597L60.3976 2.72055L60.2922 2.7543Z" fill="#BBBBBB"/>
<path id="Vector_110" d="M57.8881 2.70215L57.3377 2.78715L57.401 2.69173L57.8206 2.5984L58.1369 2.56882L58.2085 2.61465L57.8881 2.70215Z" fill="#BBBBBB"/>
<path id="Vector_111" d="M78.8082 2.6558L78.539 2.77621L78.2224 2.70788L78.2845 2.63246L78.137 2.53913L78.4111 2.48163L78.5428 2.58996L78.8082 2.6558Z" fill="#BBBBBB"/>
<path id="Vector_112" d="M58.7888 2.43955L58.4279 2.49538L58.1808 2.49496L58.3175 2.45413L58.75 2.36871L58.785 2.38163L58.7888 2.43955Z" fill="#BBBBBB"/>
<path id="Vector_113" d="M60.4003 2.59672L60.0103 2.65713L60.0715 2.58922L60.3128 2.48088L60.644 2.36255L60.7994 2.3738L60.8307 2.39255L60.727 2.49255L60.4003 2.59672Z" fill="#BBBBBB"/>
<path id="Vector_114" d="M59.9773 2.51931L59.6931 2.64056L59.5344 2.60806L59.559 2.51389L59.2573 2.50348L59.6606 2.41806L59.6969 2.34973L60.0323 2.24139L60.1894 2.27973L60.2635 2.38306L59.9773 2.51931Z" fill="#BBBBBB"/>
<path id="Vector_115" d="M90.7921 2.52421L90.2613 2.63629L89.4275 2.26046L89.4463 2.22879L89.61 2.24712L90.4792 2.40796L90.7921 2.52421Z" fill="#BBBBBB"/>
<path id="Vector_116" d="M77.5269 2.13006L78.1207 2.33881L77.819 2.4509L77.8494 2.66381L77.7411 2.71965L77.7803 2.96631L77.5898 2.97798L77.1728 2.79548L77.274 2.69048L77.0103 2.60631L76.634 2.3634L76.4507 2.14381L76.7878 2.04506L76.9044 2.14131L77.1003 2.13756L77.1061 2.0434L77.3003 2.03381L77.5269 2.13006Z" fill="#BBBBBB"/>
<path id="Vector_117" d="M78.3639 1.93699L78.7089 2.0324L78.6301 2.18074L78.2476 2.21365L77.8026 2.16699L77.7297 2.09115L77.5301 2.08615L77.3097 1.96074L77.6689 1.88574L77.9056 1.95032L77.9781 1.8699L78.3639 1.93699Z" fill="#BBBBBB"/>
<path id="Vector_118" d="M81.695 1.89957L81.5783 1.93499L81.4925 1.95499L81.5458 1.99999L81.4583 2.04499L81.2133 1.9804L81.1579 1.89624L80.8541 1.8879L81.0316 1.83915L81.222 1.83582L81.367 1.9079L81.3358 1.84415L81.3825 1.79999L81.6741 1.85832L81.695 1.89957Z" fill="#BBBBBB"/>
<path id="Vector_119" d="M89.5395 2.36L89.3253 2.39542L88.6845 2.31334L88.1395 2.20625L87.4503 2.00834L87.107 1.955L86.8699 1.77209L86.944 1.71292L87.6386 1.84584L88.7999 2.10834L89.5395 2.36Z" fill="#BBBBBB"/>
<path id="Vector_120" d="M62.9232 2.14127L62.8502 2.23127L62.4332 2.31502L61.6044 2.53002L61.2844 2.55086L61.0698 2.51377L61.2294 2.39711L61.5207 2.29419L61.8469 2.21919L61.5819 2.22169L61.704 2.12919L62.0019 2.00461L62.4769 1.88461L62.8319 1.80336L63.0232 1.78461L63.1677 1.72461L63.5019 1.71127L63.214 1.85211L63.2582 1.90961L63.3248 1.96044L62.9232 2.14127Z" fill="#BBBBBB"/>
<path id="Vector_121" d="M67.7052 1.24535L67.9377 1.26452L68.086 1.29535L68.1177 1.36202L67.9502 1.42827L67.4023 1.53785L66.9877 1.58952L66.736 1.64744L67.0056 1.64577L66.3356 1.80494L65.9485 1.88035L65.2085 2.10285L64.8185 2.14869L64.5993 2.20535L64.1018 2.23535L64.2164 2.27035L64.001 2.32077L63.8068 2.46119L63.4481 2.55994L63.0331 2.64244L62.711 2.75744L62.3002 2.84619L62.1785 2.91369L62.4777 2.90202L62.331 2.97535L61.5181 3.15744L61.2598 3.07327L60.6702 3.12077L60.5052 3.08369L60.2285 3.06785L60.5468 2.92327L61.0031 2.85577L61.4398 2.64244L61.5835 2.62202L61.6948 2.74869L61.9335 2.56119L61.8281 2.50535L62.2318 2.39452L62.6635 2.32702L62.9581 2.2291L63.0514 2.12035L63.3877 1.9791L63.721 1.99077L63.7464 2.02035L64.2231 1.9216L64.0143 1.89035L63.5068 1.90785L63.5506 1.8166L63.7794 1.71035L63.8844 1.6341L64.1539 1.5466L64.4952 1.49785L64.6598 1.48952L65.0248 1.44869L65.5056 1.35619L65.5998 1.3691L65.4918 1.43869L66.0185 1.30535L66.2927 1.26619L66.5743 1.23952L66.931 1.22952L66.9044 1.25577L67.3381 1.21494L67.5206 1.22994L67.7052 1.24535Z" fill="#BBBBBB"/>
<path id="Vector_122" d="M72.2295 1.14668L72.7012 1.33793L72.4112 1.43335L71.9632 1.4446L71.3166 1.46918L71.3207 1.51418L71.7649 1.48626L72.0328 1.57376L72.332 1.49585L72.3528 1.58751L72.0949 1.73835L72.4857 1.64126L73.1357 1.5421L73.4666 1.59126L73.4853 1.7021L72.8732 1.89043L72.7645 1.95251L72.3095 1.9996L72.6128 2.01251L72.3345 2.21376L72.112 2.3971L71.9357 2.71918L72.0257 2.91293L71.7678 2.92543L71.4482 3.02085L71.6687 3.1821L71.5812 3.44501L71.3803 3.47418L71.4837 3.74585L71.0691 3.76918L71.2195 3.8996L71.1062 4.01418L70.8174 4.06418L70.5541 4.06501L70.6832 4.28793L70.6166 4.43543L70.2978 4.29793L70.152 4.3871L70.3753 4.47043L70.5412 4.67543L70.4995 4.9496L70.1007 5.01585L70.0024 4.88376L69.8474 4.68835L69.8012 4.91918L69.4695 5.10001L70.0162 5.1146L70.2974 5.13376L69.592 5.4371L68.8653 5.71585L68.1516 5.83876L67.9045 5.84001L67.5945 5.97835L67.0599 6.36085L66.4074 6.61793L66.2353 6.63335L65.8645 6.72418L65.4674 6.81085L65.1153 7.04168L64.9478 7.30543L64.6699 7.5546L64.0703 7.86126L63.9916 8.16335L63.6845 8.48668L63.3262 8.87168L62.9328 8.89585L62.7332 8.57335L62.2045 8.57126L62.0912 8.35626L62.1803 7.97668L62.0924 7.4996L62.1587 7.25293L62.3966 6.91543L62.3549 6.57335L62.6762 6.30335L62.6378 6.17543L63.2487 5.75543L63.7032 5.62335L63.9262 5.47585L64.2291 5.20293L63.867 5.32626L63.6999 5.37835L63.4578 5.42835L63.3082 5.31418L63.537 5.07835L63.8107 4.89585L64.0074 4.89043L64.3362 4.98168L64.2053 4.76501L64.1482 4.64918L63.8962 4.69626L63.8212 4.61293L64.3974 4.3021L64.4245 4.17918L64.5495 3.95376L64.7695 3.6146L64.712 3.49168L64.8991 3.36126L64.7107 3.18085L64.3903 3.15835L63.9224 3.17085L63.4741 3.19335L63.4512 3.09585L63.5166 2.90626L64.1116 2.81251L64.4587 2.79668L63.9324 2.72001L63.8253 2.60043L64.082 2.48793L64.9274 2.35043L65.7291 2.21543L65.9899 2.11418L65.8328 2.01585L66.1899 1.90793L67.0503 1.72251L67.2937 1.69418L67.507 1.57835L67.9424 1.51085L68.3891 1.47126L68.7491 1.46918L68.7157 1.54793L69.2987 1.40918L69.3941 1.50293L69.5228 1.52293L69.6291 1.60626L69.5841 1.46918L69.7962 1.3621L70.4303 1.2171L70.7816 1.22751L71.0628 1.1396L71.4582 1.1171L72.2295 1.14668Z" fill="#BBBBBB"/>
</g>
</g>
</svg>
