<svg width="138" height="33" viewBox="0 0 138 33" fill="none" xmlns="http://www.w3.org/2000/svg">
<g id="Quantity">
<rect id="Rectangle 15" x="0.418762" y="27.2093" width="5.74449" height="5.74449" fill="#768BC1"/>
<g id="Group 1">
<rect id="Rectangle 16" x="18.2269" y="20.6031" width="5.74449" height="5.74449" fill="#768BC1"/>
<rect id="Rectangle 17" x="14.493" y="27.2094" width="5.74449" height="5.74449" fill="#768BC1"/>
<rect id="Rectangle 18" x="21.9607" y="27.2094" width="5.74449" height="5.74449" fill="#768BC1"/>
</g>
<g id="Group 3">
<g id="Group 2">
<rect id="Rectangle 16_2" x="43.5024" y="13.9973" width="5.74449" height="5.74449" fill="#768BC1"/>
<rect id="Rectangle 17_2" x="39.7685" y="20.6036" width="5.74449" height="5.74449" fill="#768BC1"/>
<rect id="Rectangle 18_2" x="47.2363" y="20.6036" width="5.74449" height="5.74449" fill="#768BC1"/>
</g>
<rect id="Rectangle 16_3" x="43.5025" y="27.2094" width="5.74449" height="5.74449" fill="#768BC1"/>
<rect id="Rectangle 17_3" x="50.9703" y="27.2094" width="5.74449" height="5.74449" fill="#768BC1"/>
<rect id="Rectangle 18_3" x="36.0348" y="27.2094" width="5.74449" height="5.74449" fill="#768BC1"/>
</g>
<g id="Group 5">
<g id="Group 4">
<g id="Group 2_2">
<rect id="Rectangle 16_4" x="77.1073" y="7.3905" width="5.74449" height="5.74449" fill="#768BC1"/>
<rect id="Rectangle 17_4" x="73.3735" y="13.9968" width="5.74449" height="5.74449" fill="#768BC1"/>
<rect id="Rectangle 18_4" x="80.8413" y="13.9968" width="5.74449" height="5.74449" fill="#768BC1"/>
</g>
<rect id="Rectangle 16_5" x="77.1073" y="20.6029" width="5.74449" height="5.74449" fill="#768BC1"/>
<rect id="Rectangle 17_5" x="84.575" y="20.6029" width="5.74449" height="5.74449" fill="#768BC1"/>
<rect id="Rectangle 18_5" x="69.6396" y="20.6029" width="5.74449" height="5.74449" fill="#768BC1"/>
</g>
<rect id="Rectangle 16_6" x="73.3736" y="27.209" width="5.74449" height="5.74449" fill="#768BC1"/>
<rect id="Rectangle 17_6" x="80.8413" y="27.209" width="5.74449" height="5.74449" fill="#768BC1"/>
<rect id="Rectangle 18_6" x="88.3091" y="27.209" width="5.74449" height="5.74449" fill="#768BC1"/>
<rect id="Rectangle 19" x="65.044" y="27.209" width="5.74449" height="5.74449" fill="#768BC1"/>
</g>
<g id="Group 7">
<g id="Group 6">
<g id="Group 4_2">
<g id="Group 2_3">
<rect id="Rectangle 16_7" x="117.32" y="0.210541" width="5.74449" height="5.74449" fill="#768BC1"/>
<rect id="Rectangle 17_7" x="113.586" y="6.81677" width="5.74449" height="5.74449" fill="#768BC1"/>
<rect id="Rectangle 18_7" x="121.053" y="6.81677" width="5.74449" height="5.74449" fill="#768BC1"/>
</g>
<rect id="Rectangle 16_8" x="117.32" y="13.4226" width="5.74449" height="5.74449" fill="#768BC1"/>
<rect id="Rectangle 17_8" x="124.787" y="13.4226" width="5.74449" height="5.74449" fill="#768BC1"/>
<rect id="Rectangle 18_8" x="109.852" y="13.4226" width="5.74449" height="5.74449" fill="#768BC1"/>
</g>
<rect id="Rectangle 16_9" x="113.586" y="20.0288" width="5.74449" height="5.74449" fill="#768BC1"/>
<rect id="Rectangle 17_9" x="121.053" y="20.0288" width="5.74449" height="5.74449" fill="#768BC1"/>
<rect id="Rectangle 18_9" x="128.521" y="20.0288" width="5.74449" height="5.74449" fill="#768BC1"/>
<rect id="Rectangle 19_2" x="105.256" y="20.0288" width="5.74449" height="5.74449" fill="#768BC1"/>
</g>
<rect id="Rectangle 16_10" x="109.852" y="27.2094" width="5.74449" height="5.74449" fill="#768BC1"/>
<rect id="Rectangle 17_10" x="117.32" y="27.2094" width="5.74449" height="5.74449" fill="#768BC1"/>
<rect id="Rectangle 18_10" x="124.788" y="27.2094" width="5.74449" height="5.74449" fill="#768BC1"/>
<rect id="Rectangle 19_3" x="102.384" y="27.2094" width="5.74449" height="5.74449" fill="#768BC1"/>
<rect id="Rectangle 20" x="132.255" y="27.2094" width="5.74449" height="5.74449" fill="#768BC1"/>
</g>
</g>
</svg>
